<svg width="90" height="90" viewBox="0 0 90 90" fill="none" xmlns="http://www.w3.org/2000/svg">
<path d="M77.1429 0H12.8571C5.75634 0 0 5.75634 0 12.8571V77.1429C0 84.2437 5.75634 90 12.8571 90H77.1429C84.2437 90 90 84.2437 90 77.1429V12.8571C90 5.75634 84.2437 0 77.1429 0Z" fill="url(#paint0_linear_5923_1535)"/>
<path d="M38.1856 62.7791C38.1856 63.6503 37.9273 64.5019 37.4433 65.2263C36.9593 65.9506 36.2713 66.5152 35.4665 66.8486C34.6616 67.182 33.7759 67.2692 32.9214 67.0993C32.067 66.9293 31.2821 66.5098 30.6661 65.8938C30.0501 65.2777 29.6305 64.4929 29.4606 63.6384C29.2906 62.784 29.3778 61.8983 29.7112 61.0934C30.0446 60.2885 30.6092 59.6006 31.3336 59.1166C32.058 58.6325 32.9096 58.3742 33.7808 58.3742C34.949 58.3742 36.0694 58.8383 36.8955 59.6644C37.7216 60.4904 38.1856 61.6108 38.1856 62.7791ZM67.5436 62.7791C67.5436 63.6503 67.2853 64.5019 66.8013 65.2263C66.3173 65.9506 65.6293 66.5152 64.8245 66.8486C64.0196 67.182 63.1339 67.2692 62.2794 67.0993C61.425 66.9293 60.6401 66.5098 60.0241 65.8938C59.4081 65.2777 58.9885 64.4929 58.8186 63.6384C58.6486 62.784 58.7358 61.8983 59.0692 61.0934C59.4026 60.2885 59.9672 59.6006 60.6916 59.1166C61.416 58.6325 62.2676 58.3742 63.1388 58.3742C63.7175 58.3739 64.2905 58.4876 64.8252 58.7088C65.36 58.93 65.8459 59.2544 66.2552 59.6635C66.6645 60.0725 66.9891 60.5582 67.2107 61.0928C67.4322 61.6274 67.5462 62.2004 67.5462 62.7791H67.5436ZM67.5436 43.6965V26.0848H32.3151C32.3164 25.3068 32.0091 24.5601 31.4604 24.0086C30.9118 23.4571 30.1667 23.1458 29.3888 23.1431H20.5714V26.0848H26.4419L28.6482 44.9874C27.697 45.7469 27.0055 46.7833 26.6693 47.9532C26.333 49.1231 26.3688 50.3686 26.7715 51.5172C27.1743 52.6659 27.9241 53.661 28.9173 54.3647C29.9105 55.0685 31.0978 55.4461 32.3151 55.4454H67.5436V52.5036H32.3151C31.538 52.5009 30.7937 52.1903 30.2453 51.6399C29.6968 51.0895 29.3888 50.3441 29.3888 49.5671C29.3888 49.5671 29.3888 49.5465 29.3888 49.5362L67.5539 43.6939L67.5436 43.6965Z" fill="#F7F1FC"/>
<defs>
<linearGradient id="paint0_linear_5923_1535" x1="-14.4863" y1="90" x2="115.222" y2="87.5653" gradientUnits="userSpaceOnUse">
<stop stop-color="#4100C8"/>
<stop offset="1" stop-color="#C052F3"/>
</linearGradient>
</defs>
</svg>
