<?xml version="1.0" encoding="UTF-8"?>
<svg id="Layer_1" data-name="Layer 1" xmlns="http://www.w3.org/2000/svg" viewBox="0 0 1091.4 800">
  <defs>
    <style>
      .cls-1 {
        fill: #fff;
      }

      .cls-2 {
        fill: #282828;
      }
    </style>
  </defs>
  <g>
    <path class="cls-2" d="m533.1,358.95c0,10.2-7.9,17.6-17.7,17.6s-17.7-7.5-17.7-17.6,7.9-17.6,17.7-17.6,17.7,7.4,17.7,17.6Zm-7.7,0c0-6.3-4.6-10.7-10-10.7s-10,4.3-10,10.7,4.6,10.7,10,10.7,10-4.4,10-10.7Z"/>
    <path class="cls-2" d="m571.3,358.95c0,10.2-7.9,17.6-17.7,17.6s-17.7-7.5-17.7-17.6,7.9-17.6,17.7-17.6,17.7,7.4,17.7,17.6Zm-7.7,0c0-6.3-4.6-10.7-10-10.7s-10,4.3-10,10.7,4.6,10.7,10,10.7,10-4.4,10-10.7Z"/>
    <path class="cls-2" d="m607.9,342.35v31.7c0,13-7.7,18.4-16.8,18.4-8.6,0-13.7-5.7-15.6-10.4l6.7-2.8c1.2,2.9,4.1,6.3,8.9,6.3,5.8,0,9.4-3.6,9.4-10.3v-2.5h-.3c-1.7,2.1-5.1,4-9.3,4-8.8,0-16.9-7.7-16.9-17.6s8.1-17.7,16.9-17.7c4.2,0,7.6,1.9,9.3,3.9h.3v-2.9l7.4-.1h0Zm-6.8,16.7c0-6.2-4.1-10.8-9.4-10.8s-9.8,4.5-9.8,10.8,4.5,10.6,9.8,10.6,9.4-4.5,9.4-10.6Z"/>
    <path class="cls-2" d="m620.1,323.85v51.7h-7.6v-51.7h7.6Z"/>
    <path class="cls-2" d="m649.5,364.75l6,4c-1.9,2.9-6.6,7.8-14.7,7.8-10,0-17.5-7.7-17.5-17.6,0-10.5,7.6-17.6,16.6-17.6s13.6,7.3,15.1,11.2l.8,2-23.6,9.8c1.8,3.5,4.6,5.3,8.6,5.3,4,0,6.7-1.9,8.7-4.9h0Zm-18.5-6.3l15.8-6.5c-.9-2.2-3.5-3.7-6.5-3.7-4-.1-9.5,3.4-9.3,10.2Z"/>
    <path class="cls-2" d="m469.1,354.35v-7.5h25.2c.2,1.3.4,2.8.4,4.5,0,5.6-1.5,12.6-6.5,17.5-4.8,5-11,7.7-19.1,7.7-15.1,0-27.8-12.3-27.8-27.4s12.7-27.4,27.8-27.4c8.4,0,14.3,3.3,18.8,7.6l-5.3,5.3c-3.2-3-7.6-5.3-13.5-5.3-11,0-19.7,8.9-19.7,19.9s8.6,19.9,19.7,19.9c7.2,0,11.2-2.9,13.8-5.5,2.1-2.1,3.5-5.1,4.1-9.3h-17.9Z"/>
  </g>
  <g>
    <path class="cls-2" d="m440.6,399.75h31.1c16,0,26.8,9,26.8,23.5,0,16.2-12.1,24-27.3,24h-16.1v29.9h-14.6v-77.4h.1Zm14.5,35.7h14.5c8.7,0,14.1-3.7,14.1-12s-6-12.1-13.8-12.1h-14.9v24.1h.1Z"/>
    <path class="cls-2" d="m553.5,463.05c0,5.4.4,12.6.8,14.1h-13.3c-.4-1.2-.8-4.1-.9-6.3-2.1,3.4-6.2,7.6-16.7,7.6-13.8,0-19.6-9-19.6-17.9,0-13,10.4-19,27.3-19h8.7v-4c0-4.4-1.5-9.2-10-9.2-7.7,0-9.2,3.5-10.1,7.8h-13.3c.8-9.5,6.7-18,23.8-17.9,15,.1,23.1,6,23.1,19.5v25.3h.2Zm-13.5-12.8h-7.4c-10.2,0-14.7,3-14.7,9.4,0,4.8,3.1,8.6,9.3,8.6,11.4,0,12.8-7.8,12.8-16.4v-1.6h0Z"/>
    <path class="cls-2" d="m568.9,435.15c0-6.5,0-11.4-.1-15.6h13.6c.2,1.4.4,6.7.4,10.7,2.7-7,9.1-11.9,18.8-12v13.4c-11.6-.1-18.8,4.1-18.8,19.4v26h-13.9v-41.9Z"/>
    <path class="cls-2" d="m607.8,419.55h9.2v-16h13.9v16h11.7v10.7h-11.7v30.2c0,4.8,1.3,6.9,6.2,6.9,1.1,0,2.8,0,4.1-.3v9.8c-2.9,1-6.9,1.1-10,1.1-10.5,0-14.3-5.5-14.3-15.4v-32.2h-9.2v-10.8h.1Z"/>
    <path class="cls-2" d="m652.3,434.05c0-4.9,0-10.2-.1-14.5h13.5c.3,1.6.5,6.2.5,8,2.1-4.1,6.7-9.4,17.2-9.4,11.3,0,19.1,7.4,19.1,22.1v36.7h-13.9v-35.1c0-7.2-2.6-12.3-10.2-12.3-8.1,0-12.2,5.3-12.2,15.9v31.5h-13.9v-42.9h0Z"/>
    <path class="cls-2" d="m728,451.25c0,8.7,4.4,16.2,13,16.2,7.5,0,9.7-3.3,11.3-7.1h13.9c-2.1,7.2-8.4,18.1-25.7,18.1-18.7,0-26.6-14.3-26.6-29.3,0-17.7,9-30.9,27.2-30.9,19.4,0,25.9,14.5,25.9,28.2,0,1.9,0,3.2-.2,4.8h-38.8Zm25.1-8.9c-.1-7.6-3.5-13.9-11.9-13.9s-12,5.9-12.8,13.9h24.7Z"/>
    <path class="cls-2" d="m778.7,435.15c0-6.5,0-11.4-.1-15.6h13.6c.2,1.4.4,6.7.4,10.7,2.7-7,9.1-11.9,18.8-12v13.4c-11.6-.1-18.8,4.1-18.8,19.4v26h-13.9v-41.9Z"/>
  </g>
  <rect class="cls-2" x="280" y="297.25" width="145.3" height="205.5"/>
  <path class="cls-1" d="m355.4,463.45c-16.6,0-32.4-6.5-44.4-18.2-12.1-11.8-18.7-27.4-18.7-44s6.6-32.2,18.7-44c12-11.8,27.8-18.2,44.4-18.2s30.6,5.6,42.7,17.1l1.8,1.8-15,15-1.8-1.7c-7.8-7.3-17.1-11-27.7-11-22.6,0-40.3,18-40.3,40.9s17.7,40.9,40.3,40.9c15.4,0,23.6-6.4,28.4-11.2,3.9-3.9,6.4-9.1,7.7-15.9h-38.6v-21.3h59.6l.4,2c.6,3,.9,6.5.9,10.3,0,9.4-1.9,27-14.9,39.9-11.4,11.8-25.6,17.6-43.5,17.6Z"/>
</svg>