<?xml version="1.0" encoding="UTF-8"?>
<svg id="Camada_1" data-name="Camada 1" xmlns="http://www.w3.org/2000/svg" xmlns:xlink="http://www.w3.org/1999/xlink" viewBox="0 0 1094 1210">
  <defs>
    <style>
      .cls-1 {
        letter-spacing: 0em;
      }

      .cls-2 {
        fill: #fff;
      }

      .cls-3 {
        fill-rule: evenodd;
      }

      .cls-3, .cls-4 {
        fill: #0061d4;
      }

      .cls-5 {
        fill: url(#Gradiente_sem_nome_6);
      }

      .cls-6 {
        fill: none;
        stroke: #000;
        stroke-miterlimit: 10;
      }

      .cls-7 {
        letter-spacing: 0em;
      }

      .cls-8 {
        fill: url(#Gradiente_sem_nome_4);
      }

      .cls-9 {
        font-family: MyriadPro-Regular, 'Myriad Pro';
        font-size: 43.85px;
      }

      .cls-10 {
        fill: url(#Gradiente_sem_nome_294);
      }

      .cls-11 {
        fill: url(#Gradiente_sem_nome_4-2);
      }

      .cls-12 {
        fill: url(#Gradiente_sem_nome_294-2);
      }

      .cls-13 {
        letter-spacing: 0em;
      }

      .cls-14 {
        fill: url(#Gradiente_sem_nome_6-2);
      }

      .cls-15 {
        letter-spacing: 0em;
      }
    </style>
    <linearGradient id="Gradiente_sem_nome_6" data-name="Gradiente sem nome 6" x1="375.74" y1="599.65" x2="718.72" y2="599.65" gradientUnits="userSpaceOnUse">
      <stop offset="0" stop-color="#144bc2"/>
      <stop offset="1" stop-color="#317bde"/>
    </linearGradient>
    <linearGradient id="Gradiente_sem_nome_4" data-name="Gradiente sem nome 4" x1="83" y1="968.77" x2="320.54" y2="968.77" gradientUnits="userSpaceOnUse">
      <stop offset="0" stop-color="#520cc4"/>
      <stop offset="1" stop-color="#a03de6"/>
    </linearGradient>
    <linearGradient id="Gradiente_sem_nome_6-2" data-name="Gradiente sem nome 6" x1="438.28" y1="968.77" x2="675.82" y2="968.77" xlink:href="#Gradiente_sem_nome_6"/>
    <linearGradient id="Gradiente_sem_nome_294" data-name="Gradiente sem nome 294" x1="790.46" y1="968.77" x2="1028" y2="968.77" gradientUnits="userSpaceOnUse">
      <stop offset="0" stop-color="#f5911e"/>
      <stop offset="1" stop-color="#fec750"/>
    </linearGradient>
    <linearGradient id="Gradiente_sem_nome_4-2" data-name="Gradiente sem nome 4" x1="79.83" y1="599.71" x2="326.7" y2="599.71" xlink:href="#Gradiente_sem_nome_4"/>
    <linearGradient id="Gradiente_sem_nome_294-2" data-name="Gradiente sem nome 294" x1="1629.42" y1="944.93" x2="1876.29" y2="944.93" gradientTransform="translate(2644.75 1527.38) rotate(-180)" xlink:href="#Gradiente_sem_nome_294"/>
  </defs>
  <path class="cls-5" d="m711.21,582.08c-4.75-4.62-11-7.11-17.56-7-6.83.1-13.38,3.08-17.97,8.18-1.06,1.18-2.59,1.85-4.18,1.85-3.12,0-5.65-2.53-5.65-5.65v-98.33h-67.74v-.22h-83.01l-.09.22h-86.42v98.33c0,3.11-2.53,5.65-5.65,5.65-1.6,0-3.12-.67-4.18-1.85-4.59-5.1-11.13-8.08-17.97-8.18-6.57-.09-12.8,2.39-17.56,7-4.75,4.61-7.41,10.76-7.51,17.32-.09,6.66,2.43,12.94,7.1,17.68,4.67,4.74,10.92,7.35,17.57,7.35,6.99,0,13.68-2.98,18.35-8.18,1.06-1.18,2.58-1.85,4.18-1.85,3.12,0,5.65,2.53,5.65,5.65v98.33h97.64c.41,0,.79-.16,1.08-.45.29-.29.45-.67.45-1.08s-.18-.84-.5-1.13c-6.05-5.57-9.53-13.48-9.53-21.7s3.12-15.41,8.78-21c5.56-5.48,12.89-8.49,20.69-8.49.14,0,.29,0,.43,0,7.84.11,15.19,3.29,20.7,8.96,5.51,5.68,8.48,13.13,8.36,20.98-.12,8.05-3.6,15.79-9.52,21.24-.16.15-.29.32-.37.52-.08.19-.13.4-.13.61,0,.84.69,1.53,1.53,1.53h97.64v-98.33c0-3.12,2.53-5.65,5.65-5.65,1.6,0,3.12.67,4.18,1.85,4.67,5.2,11.36,8.18,18.35,8.18s12.9-2.61,17.57-7.35c4.67-4.74,7.2-11.02,7.1-17.68-.09-6.56-2.76-12.71-7.51-17.32Z"/>
  <rect class="cls-8" x="83" y="850" width="237.54" height="237.54" rx="29" ry="29"/>
  <rect class="cls-14" x="438.28" y="850" width="237.54" height="237.54" rx="29" ry="29"/>
  <rect class="cls-10" x="790.46" y="850" width="237.54" height="237.54" rx="29" ry="29"/>
  <path class="cls-2" d="m209.98,911.63c-23.23,0-42.14,18.9-42.14,42.14,0,9.46,3.14,18.21,8.42,25.25l-5.22,4.95c-3.41-1.45-7.5-.79-10.28,1.99l-35.77,35.77c-3.66,3.66-3.66,9.58,0,13.24,3.66,3.66,9.58,3.66,13.24,0l35.77-35.77c2.16-2.16,3.03-5.11,2.64-7.92l5.89-5.58c7.38,6.35,16.97,10.21,27.45,10.21,23.23,0,42.14-18.9,42.14-42.14s-18.9-42.14-42.14-42.14Zm-16.13,65.32h-8.23v-11.96h8.23v11.96Zm12.63-.35h-8.22v-16.04h8.22v16.04Zm2.49-25.74c-.89,0-1.73-.28-2.34-.87l-4.4-4.42c-.89-1.17-2.39-1.17-3.56,0l-9.35,9.4c-1.17,1.17-2.66,1.17-3.83,0l-.89-.58c-.28-.58-.56-1.17-.56-2.06,0-.58.28-1.47.56-2.06l14.08-13.77c1.17-.89,2.67-.89,3.56,0l5,4.98c.56.3,1.17.58,1.73.58.89,0,1.5-.28,1.78-.58l9.68-9.68-1.78-2.03c-.28-.3-.56-.89-.28-1.17.28-.61.56-.89,1.17-.89h7.95c.56,0,.84.28,1.45.58.28.58.61,1.17.61,1.47l-.33,7.9c0,.58-.28.89-.61,1.17-.56,0-.84,0-1.45-.28l-2.06-2.36-13.79,13.79c-.56.58-1.45.87-2.34.87Zm9.83,25.38h-8.23v-23.21h8.23v23.21Zm12.64-.33h-8.17v-31.76h8.17v31.76Z"/>
  <path class="cls-2" d="m209.98,169.63c-23.23,0-42.14,18.9-42.14,42.14,0,9.46,3.14,18.21,8.42,25.25l-5.22,4.95c-3.41-1.45-7.5-.79-10.28,1.99l-35.77,35.77c-3.66,3.66-3.66,9.58,0,13.24,3.66,3.66,9.58,3.66,13.24,0l35.77-35.77c2.16-2.16,3.03-5.11,2.64-7.92l5.89-5.58c7.38,6.35,16.97,10.21,27.45,10.21,23.23,0,42.14-18.9,42.14-42.14s-18.9-42.14-42.14-42.14Zm-16.13,65.32h-8.23v-11.96h8.23v11.96Zm12.63-.35h-8.22v-16.04h8.22v16.04Zm2.49-25.74c-.89,0-1.73-.28-2.34-.87l-4.4-4.42c-.89-1.17-2.39-1.17-3.56,0l-9.35,9.4c-1.17,1.17-2.66,1.17-3.83,0l-.89-.58c-.28-.58-.56-1.17-.56-2.06,0-.58.28-1.47.56-2.06l14.08-13.77c1.17-.89,2.67-.89,3.56,0l5,4.98c.56.3,1.17.58,1.73.58.89,0,1.5-.28,1.78-.58l9.68-9.68-1.78-2.03c-.28-.3-.56-.89-.28-1.17.28-.61.56-.89,1.17-.89h7.95c.56,0,.84.28,1.45.58.28.58.61,1.17.61,1.47l-.33,7.9c0,.58-.28.89-.61,1.17-.56,0-.84,0-1.45-.28l-2.06-2.36-13.79,13.79c-.56.58-1.45.87-2.34.87Zm9.83,25.38h-8.23v-23.21h8.23v23.21Zm12.64-.33h-8.17v-31.76h8.17v31.76Z"/>
  <path class="cls-11" d="m297.92,575.03c6.83.1,13.15,2.94,17.79,7.98.6.64,1.31,1.15,2.11,1.51.81.36,1.67.54,2.55.54,3.49,0,6.33-2.84,6.33-6.33v-100.05c0-1.33-1.08-2.4-2.4-2.4h-100.73c-.47,0-.85-.38-.85-.85,0-.24.09-.46.26-.61,6.21-5.58,9.77-13.57,9.77-21.93s-3.12-15.41-8.78-20.99c-5.66-5.58-13.14-8.59-21.12-8.49-7.84.11-15.19,3.29-20.7,8.96-5.51,5.68-8.48,13.13-8.36,20.98.12,8.17,3.68,15.99,9.76,21.46.17.15.26.37.26.61,0,.46-.38.84-.84.84h-100.73c-1.33,0-2.4,1.08-2.4,2.4v100.05c0,1.69.66,3.28,1.85,4.48,1.2,1.2,2.79,1.86,4.48,1.86s3.46-.75,4.67-2.05c4.67-5.07,11.29-7.98,18.17-7.98s12.9,2.61,17.58,7.35c4.67,4.74,7.2,11.02,7.1,17.68-.09,6.56-2.76,12.71-7.5,17.32-4.75,4.62-10.99,7.09-17.56,7.01-6.83-.11-13.15-2.94-17.79-7.98-.6-.65-1.31-1.15-2.11-1.51-.81-.36-1.67-.54-2.55-.54-3.49,0-6.33,2.84-6.33,6.33v100.05c0,1.33,1.08,2.4,2.4,2.4h100.73c.46,0,.84.38.84.85,0,.24-.1.46-.26.61-6.08,5.47-9.64,13.3-9.76,21.46-.12,7.85,2.85,15.3,8.36,20.98,5.51,5.67,12.86,8.85,20.7,8.96.14,0,.28,0,.42,0,7.8,0,15.14-3.01,20.7-8.49,5.66-5.58,8.78-13.04,8.78-20.99,0-8.35-3.56-16.34-9.77-21.93-.16-.15-.26-.37-.26-.61,0-.46.38-.84.85-.84h100.73c1.33,0,2.4-1.08,2.4-2.4v-100.05c0-1.69-.66-3.28-1.85-4.48-1.2-1.2-2.79-1.86-4.48-1.86s-3.46.75-4.67,2.05c-4.67,5.07-11.29,7.98-18.17,7.98s-12.9-2.61-17.58-7.35c-4.67-4.74-7.2-11.02-7.1-17.68.09-6.56,2.76-12.71,7.5-17.32,4.75-4.62,10.98-7.12,17.56-7.01Z"/>
  <path class="cls-2" d="m219.23,540.1c-21.97,0-39.84,17.87-39.84,39.84,0,8.95,2.97,17.21,7.96,23.87l-4.94,4.68c-3.22-1.37-7.09-.74-9.72,1.88l-33.82,33.82c-3.46,3.46-3.46,9.06,0,12.52,3.46,3.46,9.06,3.46,12.52,0l33.82-33.82c2.04-2.04,2.87-4.83,2.5-7.49l5.56-5.28c6.98,6.01,16.04,9.65,25.95,9.65,21.97,0,39.84-17.87,39.84-39.84s-17.87-39.84-39.84-39.84Zm-15.25,61.76h-7.78v-11.31h7.78v11.31Zm11.95-.33h-7.78v-15.17h7.78v15.17Zm2.35-24.34c-.84,0-1.63-.27-2.21-.82l-4.16-4.18c-.84-1.11-2.26-1.11-3.36,0l-8.84,8.89c-1.11,1.11-2.52,1.11-3.63,0l-.84-.55c-.27-.55-.53-1.11-.53-1.95,0-.55.27-1.39.53-1.95l13.31-13.02c1.11-.84,2.52-.84,3.36,0l4.73,4.71c.53.29,1.1.55,1.63.55.84,0,1.42-.27,1.68-.55l9.15-9.15-1.68-1.92c-.27-.29-.53-.84-.27-1.11.27-.58.53-.84,1.1-.84h7.52c.53,0,.8.27,1.37.55.26.55.58,1.11.58,1.39l-.31,7.47c0,.55-.26.84-.57,1.11-.53,0-.8,0-1.37-.27l-1.95-2.23-13.04,13.04c-.53.55-1.37.82-2.21.82Zm9.29,24h-7.78v-21.94h7.78v21.94Zm11.95-.31h-7.73v-30.03h7.73v30.03Z"/>
  <g>
    <path class="cls-2" d="m562.06,915.75c-22.01,0-39.92,17.91-39.92,39.92,0,8.97,2.97,17.25,7.98,23.92l-4.95,4.69c-3.23-1.37-7.11-.75-9.74,1.89l-33.89,33.89c-3.46,3.46-3.46,9.08,0,12.54,3.46,3.46,9.08,3.46,12.54,0l33.89-33.89c2.05-2.05,2.87-4.84,2.5-7.5l5.58-5.29c6.99,6.02,16.08,9.67,26,9.67,22.01,0,39.92-17.91,39.92-39.92s-17.91-39.92-39.92-39.92Z"/>
    <g>
      <path class="cls-4" d="m598.17,956.21c0-19.08-15.17-34.73-34.2-35.81v-4.42c0-1.12-.97-2.07-2.1-2.07s-2.1.96-2.1,2.07v4.42c-18.44,1.05-33.26,15.79-34.15,34.06h-5.72c-1.13,0-2.1.96-2.1,2.07s.97,2.07,2.1,2.07h5.77c1.21,17.98,15.88,32.39,34.11,33.42v3.73c0,1.12.97,2.07,2.1,2.07s2.1-.96,2.1-2.07v-3.73c19.03-1.08,34.2-16.74,34.2-35.81Zm-36.29,27.73c-15.45,0-28.21-12.46-28.21-27.88s12.6-27.89,28.21-27.89,28.21,12.46,28.21,27.89-12.6,27.88-28.21,27.88Z"/>
      <path class="cls-4" d="m603.84,954.46h-5.69c.03.58.04,1.17.04,1.75,0,.8-.03,1.6-.07,2.39h5.72c1.13,0,2.1-.96,2.1-2.07s-.97-2.07-2.1-2.07Z"/>
      <circle class="cls-4" cx="561.87" cy="956.21" r="5.33"/>
    </g>
    <ellipse class="cls-2" cx="561.66" cy="954.76" rx="40.37" ry="40.14" transform="translate(-537.05 1095.69) rotate(-66.84)"/>
    <path class="cls-3" d="m585.43,938.25c-2.27,0-4.47,1.77-4.89,4l-5.32.46c-.92-1.35-2.69-2.23-4.46-2.23-2.7,0-4.89,2.23-4.89,4.89,0,1.77.43,2.66,1.28,3.55l-4.89,10.67c-.85,0-1.7.43-2.2.89l-3.12-3.12c0-.46.43-.89.43-1.77,0-2.66-2.62-4.89-5.32-4.89s-4.89,2.23-4.89,4.89c0,.89,0,1.77.42,2.23l-6.59,6.67c-.5,0-1.42-.46-1.85-.46-3.12,0-5.32,2.23-5.32,5.32,0,2.69,2.2,4.89,5.32,4.89,2.7,0,4.89-2.2,4.89-4.89,0-.89,0-1.77-.43-2.2l6.24-6.66c.92,0,1.35.43,2.2.43.92,0,1.77-.43,2.69-.43l2.62,2.66c0,.46-.43,1.35-.43,1.77,0,2.66,2.7,4.89,5.32,4.89s4.89-2.23,4.89-4.89c0-1.77-.43-3.12-1.28-4.01l4.47-10.21h.43c2.62,0,4.46-1.77,4.89-4.43l5.32-.46c.92,1.35,2.7,2.66,4.47,2.66,2.62,0,4.89-2.2,4.89-5.32,0-2.66-2.27-4.89-4.89-4.89h0Z"/>
  </g>
  <path class="cls-2" d="m554.06,186.06c-22.01,0-39.92,17.91-39.92,39.92,0,8.97,2.97,17.25,7.98,23.92l-4.95,4.69c-3.23-1.37-7.11-.75-9.74,1.89l-33.89,33.89c-3.46,3.46-3.46,9.08,0,12.54,3.46,3.46,9.08,3.46,12.54,0l33.89-33.89c2.05-2.05,2.87-4.84,2.5-7.5l5.58-5.29c6.99,6.02,16.08,9.67,26,9.67,22.01,0,39.92-17.91,39.92-39.92s-17.91-39.92-39.92-39.92Zm23.37,32.71c-1.77,0-3.54-1.31-4.47-2.66l-5.32.46c-.43,2.66-2.27,4.43-4.89,4.43h-.43l-4.47,10.21c.85.89,1.28,2.23,1.28,4.01,0,2.66-2.2,4.89-4.89,4.89s-5.32-2.23-5.32-4.89c0-.43.43-1.31.43-1.77l-2.62-2.66c-.92,0-1.77.43-2.69.43-.85,0-1.28-.43-2.2-.43l-6.24,6.66c.43.43.43,1.31.43,2.2,0,2.69-2.2,4.89-4.89,4.89-3.12,0-5.32-2.2-5.32-4.89,0-3.08,2.2-5.32,5.32-5.32.43,0,1.35.46,1.85.46l6.59-6.67c-.42-.46-.42-1.35-.42-2.23,0-2.66,2.2-4.89,4.89-4.89s5.32,2.23,5.32,4.89c0,.89-.43,1.31-.43,1.77l3.12,3.12c.5-.46,1.35-.89,2.2-.89l4.89-10.67c-.85-.89-1.28-1.77-1.28-3.55,0-2.66,2.2-4.89,4.89-4.89,1.77,0,3.54.89,4.46,2.23l5.32-.46c.43-2.23,2.62-4,4.89-4,2.62,0,4.89,2.23,4.89,4.89,0,3.12-2.27,5.32-4.89,5.32Z"/>
  <path class="cls-2" d="m560.06,540.06c-22.01,0-39.92,17.91-39.92,39.92,0,8.97,2.97,17.25,7.98,23.92l-4.95,4.69c-3.23-1.37-7.11-.75-9.74,1.89l-33.89,33.89c-3.46,3.46-3.46,9.08,0,12.54,3.46,3.46,9.08,3.46,12.54,0l33.89-33.89c2.05-2.05,2.87-4.84,2.5-7.5l5.58-5.29c6.99,6.02,16.08,9.67,26,9.67,22.01,0,39.92-17.91,39.92-39.92s-17.91-39.92-39.92-39.92Zm23.37,32.71c-1.77,0-3.54-1.31-4.47-2.66l-5.32.46c-.43,2.66-2.27,4.43-4.89,4.43h-.43l-4.47,10.21c.85.89,1.28,2.23,1.28,4.01,0,2.66-2.2,4.89-4.89,4.89s-5.32-2.23-5.32-4.89c0-.43.43-1.31.43-1.77l-2.62-2.66c-.92,0-1.77.43-2.69.43-.85,0-1.28-.43-2.2-.43l-6.24,6.66c.43.43.43,1.31.43,2.2,0,2.69-2.2,4.89-4.89,4.89-3.12,0-5.32-2.2-5.32-4.89,0-3.08,2.2-5.32,5.32-5.32.43,0,1.35.46,1.85.46l6.59-6.67c-.42-.46-.42-1.35-.42-2.23,0-2.66,2.2-4.89,4.89-4.89s5.32,2.23,5.32,4.89c0,.89-.43,1.31-.43,1.77l3.12,3.12c.5-.46,1.35-.89,2.2-.89l4.89-10.67c-.85-.89-1.28-1.77-1.28-3.55,0-2.66,2.2-4.89,4.89-4.89,1.77,0,3.54.89,4.46,2.23l5.32-.46c.43-2.23,2.62-4,4.89-4,2.62,0,4.89,2.23,4.89,4.89,0,3.12-2.27,5.32-4.89,5.32Z"/>
  <path class="cls-12" d="m891.89,432.58c.14,0,.28,0,.42,0h0c7.84.11,15.19,3.29,20.7,8.96,5.51,5.68,8.48,13.13,8.36,20.98-.12,8.16-3.68,15.99-9.77,21.46-.16.15-.26.37-.26.61,0,.47.38.85.84.85h100.73c1.33,0,2.4,1.08,2.4,2.4v100.05c0,3.49-2.84,6.33-6.33,6.33-.88,0-1.74-.18-2.55-.54-.81-.36-1.51-.86-2.11-1.51-4.64-5.04-10.95-7.88-17.79-7.98-6.57-.09-12.8,2.39-17.56,7.01-4.75,4.61-7.41,10.76-7.5,17.32-.09,6.66,2.43,12.94,7.1,17.68,4.68,4.74,10.92,7.35,17.58,7.35s13.5-2.91,18.17-7.98c1.2-1.3,2.9-2.05,4.67-2.05s3.28.66,4.48,1.86c1.2,1.2,1.85,2.79,1.85,4.48v100.05c0,1.33-1.08,2.4-2.4,2.4h-242.06c-1.33,0-2.4-1.08-2.4-2.4v-100.05c0-3.49,2.84-6.33,6.33-6.33.88,0,1.74.18,2.55.54.81.36,1.52.87,2.11,1.51,4.64,5.04,10.95,7.87,17.79,7.98,6.55.08,12.8-2.39,17.56-7.01,4.75-4.61,7.41-10.76,7.5-17.32.09-6.66-2.43-12.94-7.1-17.68-4.68-4.74-10.92-7.35-17.58-7.35s-13.5,2.91-18.17,7.98c-1.2,1.3-2.9,2.05-4.67,2.05s-3.28-.66-4.48-1.86c-1.2-1.2-1.85-2.79-1.85-4.48v-100.05c0-1.33,1.08-2.4,2.4-2.4h100.73c.47,0,.85-.38.85-.84,0-.24-.09-.46-.26-.61-6.21-5.58-9.77-13.57-9.77-21.92s3.12-15.41,8.78-20.99c5.56-5.48,12.9-8.49,20.7-8.49Z"/>
  <g>
    <path class="cls-2" d="m869.42,588.21c.91-18.56,15.95-33.53,34.69-34.59v-4.49c0-.37.11-.71.29-1.02-21.29,1.06-38.3,18.61-38.5,40.1h3.53Z"/>
    <path class="cls-2" d="m947.42,588.68c0-22.29-18.4-40.29-41.18-40.29s-41.18,18-41.18,40.29,18.62,40.28,41.18,40.28,41.18-18,41.18-40.28Zm-25.48-12.63c-.76,1.81-1.54,3.61-2.32,5.41-.75,1.73-1.5,3.45-2.25,5.18-1,2.31-1.99,4.62-2.99,6.92-.77,1.77-1.56,3.53-2.33,5.31-.86,1.98-1.69,3.97-2.54,5.96-.51,1.19-1.04,2.37-1.55,3.56-.3.72-.88,1.02-1.59,1.05-.73.03-1.28-.44-1.5-1.27-.34-1.27-.63-2.56-.94-3.84-.35-1.48-.68-2.96-1.02-4.43-.47-2.01-.96-4.01-1.39-6.02-.09-.44-.36-.51-.66-.58-2.63-.56-5.24-1.2-7.86-1.82-2.07-.49-4.14-.96-6.21-1.44-.8-.18-1.28-.68-1.36-1.43-.07-.69.27-1.31.98-1.63,2.13-.95,4.27-1.88,6.41-2.81,2.06-.89,4.12-1.78,6.18-2.67,2.24-.96,4.48-1.92,6.71-2.89,2.04-.88,4.07-1.78,6.12-2.67,2.3-1,4.61-1.98,6.91-2.97.64-.27,1.26-.57,1.91-.83,1.03-.41,2.14.36,2.14,1.84-.03.54-.51,1.29-.85,2.08Z"/>
    <path class="cls-2" d="m904.1,629.07v-2.71c-18.51-1.05-33.42-15.69-34.64-33.94h-3.4c.72,7.63,3.55,14.66,7.92,20.47l-5.02,4.77c-3.28-1.39-7.22-.76-9.89,1.92l-34.42,34.42c-3.52,3.52-3.52,9.22,0,12.74,3.52,3.52,9.22,3.52,12.74,0l34.42-34.42c2.08-2.08,2.92-4.92,2.54-7.62l5.66-5.37c6.55,5.64,14.92,9.22,24.09,9.75Z"/>
    <path class="cls-2" d="m943.05,592.42c.05-.8.08-1.61.08-2.43,0-.6-.02-1.19-.04-1.78h3.88c-.21-21.63-17.43-39.25-38.89-40.11.18.31.3.66.3,1.03v4.49c19.33,1.1,34.73,17,34.73,36.37s-15.4,35.28-34.73,36.37v2.73c20.19-.95,36.55-16.74,38.42-36.68h-3.74Z"/>
  </g>
  <g>
    <path class="cls-2" d="m883.42,949.21c.91-18.56,15.95-33.53,34.69-34.59v-4.49c0-.37.11-.71.29-1.02-21.29,1.06-38.3,18.61-38.5,40.1h3.53Z"/>
    <path class="cls-2" d="m961.42,949.68c0-22.29-18.4-40.29-41.18-40.29s-41.18,18-41.18,40.29,18.62,40.28,41.18,40.28,41.18-18,41.18-40.28Zm-25.48-12.63c-.76,1.81-1.54,3.61-2.32,5.41-.75,1.73-1.5,3.45-2.25,5.18-1,2.31-1.99,4.62-2.99,6.92-.77,1.77-1.56,3.53-2.33,5.31-.86,1.98-1.69,3.97-2.54,5.96-.51,1.19-1.04,2.37-1.55,3.56-.3.72-.88,1.02-1.59,1.05-.73.03-1.28-.44-1.5-1.27-.34-1.27-.63-2.56-.94-3.84-.35-1.48-.68-2.96-1.02-4.43-.47-2.01-.96-4.01-1.39-6.02-.09-.44-.36-.51-.66-.58-2.63-.56-5.24-1.2-7.86-1.82-2.07-.49-4.14-.96-6.21-1.44-.8-.18-1.28-.68-1.36-1.43-.07-.69.27-1.31.98-1.63,2.13-.95,4.27-1.88,6.41-2.81,2.06-.89,4.12-1.78,6.18-2.67,2.24-.96,4.48-1.92,6.71-2.89,2.04-.88,4.07-1.78,6.12-2.67,2.3-1,4.61-1.98,6.91-2.97.64-.27,1.26-.57,1.91-.83,1.03-.41,2.14.36,2.14,1.84-.03.54-.51,1.29-.85,2.08Z"/>
    <path class="cls-2" d="m918.1,990.07v-2.71c-18.51-1.05-33.42-15.69-34.64-33.94h-3.4c.72,7.63,3.55,14.66,7.92,20.47l-5.02,4.77c-3.28-1.39-7.22-.76-9.89,1.92l-34.42,34.42c-3.52,3.52-3.52,9.22,0,12.74,3.52,3.52,9.22,3.52,12.74,0l34.42-34.42c2.08-2.08,2.92-4.92,2.54-7.62l5.66-5.37c6.55,5.64,14.92,9.22,24.09,9.75Z"/>
    <path class="cls-2" d="m957.05,953.42c.05-.8.08-1.61.08-2.43,0-.6-.02-1.19-.04-1.78h3.88c-.21-21.63-17.43-39.25-38.89-40.11.18.31.3.66.3,1.03v4.49c19.33,1.1,34.73,17,34.73,36.37s-15.4,35.28-34.73,36.37v2.73c20.19-.95,36.55-16.74,38.42-36.68h-3.74Z"/>
  </g>
  <path class="cls-2" d="m886.23,175.39c-22.78,0-41.18,18-41.18,40.29,0,8.86,2.95,17.03,7.91,23.67l-4.1,3.89c-3.28-1.39-7.22-.76-9.89,1.92l-34.42,34.42c-3.52,3.52-3.52,9.22,0,12.74,3.52,3.52,9.22,3.52,12.74,0l34.42-34.42c2.08-2.08,2.92-4.92,2.54-7.62l4.71-4.47c7.29,6.32,16.86,10.16,27.27,10.16,22.78,0,41.18-18,41.18-40.28s-18.4-40.29-41.18-40.29Zm15.7,27.66c-.76,1.81-1.54,3.61-2.32,5.41-.75,1.73-1.5,3.45-2.25,5.18-1,2.31-1.99,4.62-2.99,6.92-.77,1.77-1.56,3.53-2.33,5.31-.86,1.98-1.69,3.97-2.54,5.96-.51,1.19-1.04,2.37-1.55,3.56-.3.72-.88,1.02-1.59,1.05-.73.03-1.28-.44-1.5-1.27-.34-1.27-.63-2.56-.94-3.84-.35-1.48-.68-2.96-1.02-4.43-.47-2.01-.96-4.01-1.39-6.02-.09-.44-.36-.51-.66-.58-2.63-.56-5.24-1.2-7.86-1.82-2.07-.49-4.14-.96-6.21-1.44-.8-.18-1.28-.68-1.36-1.43-.07-.69.27-1.31.98-1.63,2.13-.95,4.27-1.88,6.41-2.81,2.06-.89,4.12-1.78,6.18-2.67,2.24-.96,4.48-1.92,6.71-2.89,2.04-.88,4.07-1.78,6.12-2.67,2.3-1,4.61-1.98,6.91-2.97.64-.27,1.26-.57,1.91-.83,1.03-.41,2.14.36,2.14,1.84-.03.54-.51,1.29-.85,2.08Z"/>
  <rect class="cls-6" x="61" y="89" width="954" height="281"/>
  <text class="cls-9" transform="translate(321.5 68.16)"><tspan x="0" y="0">i</tspan><tspan class="cls-15" x="10.26" y="0">c</tspan><tspan x="29.64" y="0">ones sol</tspan><tspan class="cls-1" x="178.46" y="0">t</tspan><tspan x="192.71" y="0">os em b</tspan><tspan class="cls-13" x="336.22" y="0">r</tspan><tspan x="350.34" y="0">an</tspan><tspan class="cls-1" x="395.81" y="0">c</tspan><tspan class="cls-7" x="415.19" y="0">o</tspan></text>
</svg>