<?xml version="1.0" encoding="UTF-8"?>
<svg id="Camada_1" data-name="Camada 1" xmlns="http://www.w3.org/2000/svg" viewBox="0 0 625 243">
  <defs>
    <style>
      .cls-1 {
        fill: #fff;
      }

      .cls-2 {
        fill: #2e29a7;
      }

      .cls-3 {
        fill: #5754db;
      }
    </style>
  </defs>
  <path class="cls-1" d="m71.27,66.92H14.66l8.6-44.55h168.14l-8.6,44.55h-56.52l-29.15,154.08h-55.17l29.31-154.08Z"/>
  <path class="cls-1" d="m286.83,22h-72.12l-102.44,199h57.75l19.66-38.07h67.43l5.09,38.07h55.7l-31.07-199Zm-23.41,133.52c-.48.46-1.07.77-1.73.84-1.42.15-2.69-.81-3.79-1.72-8.25-6.8-16.5-13.6-24.75-20.39-.36-.3-.75-.61-1.22-.68-.5-.08-1,.14-1.47.35-10.06,4.53-20.13,9.04-30.17,13.62-1.73.79-3.3.55-4.52-.72-1.76-1.85-.62-4.26.46-6.18,13.68-24.5,26.78-49.44,41.08-73.58,2.81-4.74,7.13.62,7.84,3.65,6.11,25.98,12.64,51.86,19.03,77.78.39,1.58.78,3.23.45,4.82-.17.83-.6,1.65-1.21,2.24Z"/>
  <path class="cls-1" d="m335.45,157.89c2.34,14.35,12.95,24.06,34.52,24.06,16.21,0,28.37-4.58,28.37-18.15,0-10.24-5.69-16.04-33.25-23.56-47.97-13.07-64.12-28.5-64.12-55.26,0-38.43,31.43-63.98,81.66-63.98,60.36,0,81.12,30.03,82.4,58.61h-52.61c-1.43-9.23-7.35-19.86-30-19.86-14.08,0-22.56,7.01-22.56,16.91,0,10.53,8.25,14.09,32.91,20.56,51.43,13.6,64.94,32.21,64.94,59.32,0,38.01-31.83,64.7-90.31,64.7-53.19,0-82.36-22.25-85.63-63.36h53.68Z"/>
  <path class="cls-2" d="m467.8,21.72h78.87c45.57,0,69.33,24.84,69.33,57.67,0,45.13-33.79,70.43-84.63,70.43h-36.75l-14.82,71.04h-54.22l42.22-199.14Z"/>
  <g>
    <path class="cls-3" d="m447.21,117.04l-.09.42-14.69,71.16,44.85-47.56v-.02c5.54-5.59,11.02-11.23,16.93-16.38.97-.9,2.49-1.31,3.78-.88,1.44.5,3.48,2.54,5.01,3.46,7.46,5.48,16.67,8.87,25.99,9.07l.43.17.53-.18c.69,0,1.39.03,2.08-.01,4.89-.27,9.77-1.08,14.41-2.68,1.27-.33,3.85-1.59,5.13-2.09,1.66-.72,3.26-1.81,4.87-2.66,1.1-.72,3.4-2.4,4.5-3.24,1.56-1.43,3.99-3.54,5.3-5.15,1.8-1.81,3.58-4.49,5.1-6.56.29-.55,1.09-1.82,1.38-2.4,1.33-2.09,2.18-4.42,3.18-6.66,1.66-4.53,2.84-9.53,3.13-14.36,1.64-31.07-23.78-57.62-55.24-54.95-30.23,2.46-49.33,34.66-44.15,63.45.24.92-.02,1.95-.8,2.5m-36.45,43.84l.13-1.26c0,.43-.1.83-.13,1.26Z"/>
    <path class="cls-1" d="m517.67,128.45c12.97,2.99,26.85-.46,37.05-8.99,9.55-7.99,15.25-20.21,15.65-32.61.17-5.46-.73-10.96-2.67-16.07-4.18-10.99-12.89-19.58-23.87-23.71,7.93,6.33,16.21,15.71,19.86,26.03,2.19,6.19,2.08,12.87,1.01,19.01-4.24,24.36-25.88,37.39-51.34,32.96-3.46-.6-6.84-1.73-10.02-3.08,1.19.86,2.37,1.72,3.63,2.41,3.36,1.84,6.98,3.19,10.71,4.05Z"/>
    <path class="cls-2" d="m551.36,69.58c-.33-.06-4.68.31-5.06.29-5.44.33-19.91,1.24-25.53,1.59l-8.52.55-4.27.29c-1.05-.05-3.16.49-4.07,1.67-2.4,2.49-1.45,6.73,1.49,8.23.15.11,2.1,1.34,2.23,1.44,2.38,1.54,7.15,4.62,10.26,6.62-.09,1.52-.2,3.53-.25,4.37-.15,2.88-.34,5.65-.45,8.58l-.1,2.18c-.25,2.22,1.03,4.75,3.33,5.48,1.94.79,4.67.04,5.9-1.67l.68-.82,5.4-6.57c4.99-6.02,14.18-17.05,19.05-22.98l1.31-1.58c.64-.76,1.31-1.27,1.69-2.31.88-2.25-.46-5.25-3.1-5.35Zm-43.27,9.24c-.19.03-.13.02.02,0,0,0-.02,0-.02,0Zm13.4,26.18c-.19.21-.07.06-.02.01,0,0,.02-.01.03-.02h0Z"/>
    <g>
      <path class="cls-1" d="m549.64,73.39c-.02-.09-.06-.12-.07-.1-.02.03.03.07.07.11,0,0,0,0,0,0Z"/>
      <path class="cls-1" d="m524.11,91.11c-.43,3.55-.91,7.32-1.33,10.97,7.53-8.03,17.21-18.22,24.3-25.79.54-.6,1.93-2.02,2.51-2.6.02-.01.03-.03.04-.04.01-.07.02-.13.02-.19-.04,0-.23.03-.23.03-11.69,1.46-26.31,3.23-38.54,4.79,3.36,1.89,7.37,4.15,10,5.63l.91.52c.5.16,2.05,1.5,2.3,2.57.31.89.32,1.5.24,2.29-.05.48-.15,1.35-.21,1.83Z"/>
    </g>
  </g>
</svg>