<?xml version="1.0" encoding="UTF-8"?>
<svg id="Camada_1" data-name="Camada 1" xmlns="http://www.w3.org/2000/svg" viewBox="0 0 263 104">
  <defs>
    <style>
      .cls-1 {
        fill: #fff;
      }
    </style>
  </defs>
  <path class="cls-1" d="m49.75,35.12h-17.44l2.65-13.73h51.81l-2.65,13.73h-17.42l-8.98,47.48h-17l9.03-47.48Z"/>
  <path class="cls-1" d="m133.82,63.75c.75,4.59,4.14,7.69,11.03,7.69,5.18,0,9.07-1.47,9.07-5.8,0-3.27-1.82-5.13-10.63-7.53-15.33-4.18-20.49-9.11-20.49-17.66,0-12.28,10.04-20.45,26.1-20.45,19.29,0,25.93,9.6,26.33,18.73h-16.81c-.46-2.95-2.35-6.35-9.59-6.35-4.5,0-7.21,2.24-7.21,5.41,0,3.37,2.64,4.5,10.52,6.57,16.44,4.35,20.75,10.29,20.75,18.96,0,12.15-10.17,20.68-28.86,20.68-17,0-26.32-7.11-27.37-20.25h17.16Z"/>
  <path class="cls-1" d="m203.92,21.4h-30.15l-7.56,35.69,18.25-9.27c-.73-1.72-1.36-3.89-1.36-5.77,0-3.91,1.61-7.44,4.21-9.98l.26-.24.12-.13c2.62-2.38,6.14-3.78,9.99-3.61,7.01.3,12.81,5.89,13.33,12.89.62,8.19-5.87,15.12-13.94,15.06-3.76-.03-6.72-1.84-9.05-3.77l-25.53,22.34-1.69,8h18.6l4.06-20.23h14.66c16.59,0,28.58-6.78,28.58-21.9,0-11.77-8.91-19.07-22.77-19.07Z"/>
  <path class="cls-1" d="m117.42,21.4h-22.18l-31.51,61.21h17.76l6.05-11.71h20.74l1.57,11.71h17.13l-9.56-61.21Zm-7.16,41.11c-.4.33-.91.31-1.4-.07-.74-.57-1.47-1.17-2.19-1.77-.83-.68-1.66-1.38-2.5-2.06-1.13-.93-2.28-1.85-3.39-2.8-.24-.21-.43-.13-.62-.04-1.73.82-3.48,1.59-5.23,2.37-1.38.62-2.75,1.24-4.13,1.87-.53.24-1.02.17-1.39-.22-.34-.36-.41-.86-.15-1.34.79-1.46,1.6-2.91,2.41-4.36.78-1.4,1.56-2.79,2.34-4.18.85-1.51,1.7-3.02,2.54-4.53.77-1.38,1.53-2.77,2.3-4.15.87-1.56,1.75-3.11,2.62-4.67.24-.43.47-.87.72-1.3.4-.68,1.36-.72,2.01.11.22.32.27.95.42,1.54.36,1.35.69,2.71,1.03,4.06.33,1.3.64,2.6.97,3.9.43,1.74.87,3.47,1.3,5.2.33,1.33.64,2.67.98,4.01.37,1.49.76,2.98,1.14,4.47.23.89.44,1.79.67,2.68.14.54-.06.96-.45,1.28Z"/>
  <path class="cls-1" d="m204.21,36.86c-.1-.02-1.42.09-1.54.09-1.65.1-6.05.38-7.75.48l-2.59.17-1.3.09c-.32-.01-.96.15-1.24.51-.73.76-.44,2.04.45,2.5.05.03.64.41.68.44.72.47,2.17,1.4,3.12,2.01-.03.46-.06,1.07-.08,1.33-.05.87-.1,1.71-.14,2.61l-.03.66c-.08.67.31,1.44,1.01,1.66.59.24,1.42.01,1.79-.51l.2-.25,1.64-2c1.52-1.83,4.3-5.18,5.79-6.98l.4-.48c.19-.23.4-.39.51-.7.27-.68-.14-1.59-.94-1.63Zm-13.14,2.81c-.06,0-.04,0,0,0,0,0,0,0,0,0Zm4.07,7.95c-.06.06-.02.02,0,0,0,0,0,0,0,0h0Z"/>
</svg>