<?xml version="1.0" encoding="UTF-8"?>
<svg id="Camada_1" data-name="Camada 1" xmlns="http://www.w3.org/2000/svg" viewBox="0 0 263 104">
  <defs>
    <style>
      .cls-1 {
        fill: #fff;
      }

      .cls-2 {
        fill: #2e29a7;
      }

      .cls-3 {
        fill: #5754db;
      }
    </style>
  </defs>
  <path class="cls-1" d="m51.41,34.21h-18.58l2.82-14.62h55.18l-2.82,14.62h-18.55l-9.57,50.56h-18.11l9.62-50.56Z"/>
  <path class="cls-1" d="m122.15,19.47h-23.67l-33.62,65.31h18.95l6.45-12.49h22.13l1.67,12.49h18.28l-10.2-65.31Zm-7.68,43.82c-.16.15-.35.25-.57.28-.47.05-.88-.27-1.24-.57-2.71-2.23-5.41-4.46-8.12-6.69-.12-.1-.25-.2-.4-.22-.17-.03-.33.04-.48.11-3.3,1.49-6.61,2.97-9.9,4.47-.57.26-1.08.18-1.48-.24-.58-.61-.2-1.4.15-2.03,4.49-8.04,8.79-16.22,13.48-24.14.92-1.55,2.34.2,2.57,1.2,2.01,8.53,4.15,17.02,6.25,25.52.13.52.26,1.06.15,1.58-.06.27-.2.54-.4.73Z"/>
  <path class="cls-1" d="m138.1,64.06c.77,4.71,4.25,7.89,11.33,7.89,5.32,0,9.31-1.5,9.31-5.96,0-3.36-1.87-5.26-10.91-7.73-15.74-4.29-21.04-9.35-21.04-18.14,0-12.61,10.31-21,26.8-21,19.81,0,26.62,9.86,27.04,19.23h-17.26c-.47-3.03-2.41-6.52-9.84-6.52-4.62,0-7.4,2.3-7.4,5.55,0,3.46,2.71,4.62,10.8,6.75,16.88,4.46,21.31,10.57,21.31,19.47,0,12.47-10.44,21.23-29.64,21.23-17.46,0-27.03-7.3-28.1-20.79h17.61Z"/>
  <path class="cls-2" d="m181.54,19.38h25.88c14.95,0,22.75,8.15,22.75,18.93,0,14.81-11.09,23.11-27.77,23.11h-12.06l-4.86,23.31h-17.79l13.85-65.35Z"/>
  <g>
    <path class="cls-3" d="m174.78,50.66l-.03.14-4.82,23.35,14.72-15.61h0c1.82-1.84,3.62-3.69,5.56-5.38.32-.29.82-.43,1.24-.29.47.16,1.14.83,1.64,1.14,2.45,1.8,5.47,2.91,8.53,2.98l.14.06.18-.06c.23,0,.46,0,.68,0,1.61-.09,3.21-.35,4.73-.88.42-.11,1.26-.52,1.68-.69.54-.23,1.07-.59,1.6-.87.36-.24,1.11-.79,1.48-1.06.51-.47,1.31-1.16,1.74-1.69.59-.6,1.18-1.47,1.67-2.15.1-.18.36-.6.45-.79.44-.69.72-1.45,1.04-2.19.54-1.49.93-3.13,1.03-4.71.54-10.2-7.8-18.91-18.13-18.03-9.92.81-16.19,11.38-14.49,20.82.08.3,0,.64-.26.82m-11.96,14.39l.04-.41c0,.14-.03.27-.04.41Z"/>
    <path class="cls-1" d="m197.9,54.4c4.26.98,8.81-.15,12.16-2.95,3.13-2.62,5.01-6.63,5.13-10.7.06-1.79-.24-3.6-.88-5.27-1.37-3.61-4.23-6.43-7.83-7.78,2.6,2.08,5.32,5.16,6.52,8.54.72,2.03.68,4.22.33,6.24-1.39,8-8.49,12.27-16.85,10.82-1.13-.2-2.25-.57-3.29-1.01.39.28.78.56,1.19.79,1.1.6,2.29,1.05,3.51,1.33Z"/>
    <path class="cls-2" d="m208.96,35.08c-.11-.02-1.54.1-1.66.1-1.78.11-6.53.41-8.38.52l-2.8.18-1.4.09c-.34-.01-1.04.16-1.34.55-.79.82-.48,2.21.49,2.7.05.04.69.44.73.47.78.51,2.35,1.52,3.37,2.17-.03.5-.07,1.16-.08,1.43-.05.94-.11,1.85-.15,2.82l-.03.71c-.08.73.34,1.56,1.09,1.8.64.26,1.53.01,1.94-.55l.22-.27,1.77-2.16c1.64-1.98,4.65-5.6,6.25-7.54l.43-.52c.21-.25.43-.42.56-.76.29-.74-.15-1.72-1.02-1.76Zm-14.2,3.03c-.06,0-.04,0,0,0,0,0,0,0,0,0Zm4.4,8.59c-.06.07-.02.02,0,0,0,0,0,0,0,0h0Z"/>
    <g>
      <path class="cls-1" d="m208.39,36.33s-.02-.04-.02-.03c0,0,0,.02.02.04,0,0,0,0,0,0Z"/>
      <path class="cls-1" d="m200.01,42.15c-.14,1.17-.3,2.4-.44,3.6,2.47-2.64,5.65-5.98,7.97-8.46.18-.2.63-.66.82-.85,0,0,0,0,.01-.01,0-.02,0-.04,0-.06-.01,0-.08,0-.08,0-3.83.48-8.63,1.06-12.65,1.57,1.1.62,2.42,1.36,3.28,1.85l.3.17c.16.05.67.49.75.84.1.29.1.49.08.75-.02.16-.05.44-.07.6Z"/>
    </g>
  </g>
</svg>