<?xml version="1.0" encoding="utf-8"?>
<!-- Generator: Adobe Illustrator 27.2.0, SVG Export Plug-In . SVG Version: 6.00 Build 0)  -->
<svg version="1.1" id="Layer_1" xmlns="http://www.w3.org/2000/svg" xmlns:xlink="http://www.w3.org/1999/xlink" x="0px" y="0px"
	 viewBox="0 0 3932.4 800" style="enable-background:new 0 0 3932.4 800;" xml:space="preserve">
<style type="text/css">
	.st0{fill:#282828;}
	.st1{fill:#FFFFFF;}
</style>
<g>
	<g>
		<path class="st0" d="M503.5,347.8L503.5,347.8c-2.2-8.1-8.6-14.5-16.7-16.7c-14.8-4.1-74.2-4.1-74.2-4.1s-59.4,0-74.2,3.9
			c-8,2.2-14.5,8.7-16.7,16.9c-3.9,14.8-3.9,45.6-3.9,45.6s0,30.9,3.9,45.6c2.2,8.1,8.6,14.5,16.7,16.7c15,4.1,74.2,4.1,74.2,4.1
			s59.4,0,74.2-3.9c8.1-2.2,14.5-8.6,16.7-16.7c3.9-14.8,3.9-45.6,3.9-45.6S507.6,362.6,503.5,347.8z M393.7,421.8v-56.9l49.4,28.4
			L393.7,421.8z"/>
		<g id="g7451">
			<g id="g7449">
				<path id="path7435" class="st0" d="M593.2,447.9c-3.7-2.5-6.4-6.4-8-11.9c-1.6-5.3-2.3-12.5-2.3-21.2v-12
					c0-8.9,0.9-16.1,2.7-21.6c1.9-5.5,4.7-9.4,8.4-11.9c3.9-2.5,8.9-3.7,15.2-3.7c6.1,0,11.1,1.2,14.8,3.7c3.7,2.5,6.4,6.6,8.1,11.9
					s2.7,12.5,2.7,21.6v12c0,8.9-0.8,15.9-2.5,21.4c-1.7,5.3-4.4,9.4-8.1,11.9c-3.7,2.5-8.9,3.7-15.3,3.7
					C602.3,451.7,597,450.4,593.2,447.9L593.2,447.9z M614.3,434.8c1.1-2.7,1.6-7.2,1.6-13.3v-25.9c0-5.9-0.5-10.3-1.6-13.1
					c-1.1-2.8-2.8-4.1-5.5-4.1c-2.5,0-4.4,1.4-5.3,4.1c-1.1,2.8-1.6,7.2-1.6,13.1v25.9c0,6.1,0.5,10.6,1.6,13.3
					c0.9,2.7,2.8,4.1,5.5,4.1C611.5,438.8,613.2,437.6,614.3,434.8z"/>
				<path id="path7437" class="st0" d="M881.6,414.9v4.2c0,5.3,0.2,9.4,0.5,12c0.3,2.7,0.9,4.7,2,5.8c0.9,1.2,2.5,1.9,4.7,1.9
					c2.8,0,4.7-1.1,5.8-3.3s1.6-5.8,1.7-10.9l16.1,0.9c0.2,0.8,0.2,1.7,0.2,3c0,7.7-2,13.4-6.2,17.2c-4.2,3.7-10.2,5.6-17.8,5.6
					c-9.2,0-15.6-3-19.4-8.7c-3.7-5.8-5.6-14.7-5.6-26.9v-14.5c0-12.5,1.9-21.6,5.8-27.3c3.9-5.8,10.5-8.6,19.7-8.6
					c6.4,0,11.4,1.2,14.8,3.6c3.4,2.3,5.8,6.1,7.2,10.9c1.4,5,2,11.9,2,20.6v14.2h-31.4V414.9z M884,379.9c-0.9,1.2-1.6,3.1-1.9,5.8
					c-0.3,2.7-0.5,6.7-0.5,12.2v5.9h13.7v-5.9c0-5.3-0.2-9.4-0.5-12.2c-0.3-2.8-1.1-4.7-2-5.8c-0.9-1.1-2.5-1.7-4.4-1.7
					C886.3,378.1,884.9,378.7,884,379.9L884,379.9z"/>
				<path id="path7439" class="st0" d="M547.6,413.4l-21.2-77h18.6l7.5,34.8c1.9,8.6,3.3,15.9,4.2,22h0.5c0.6-4.4,2-11.6,4.2-21.9
					l7.8-35h18.6l-21.6,77v36.9h-18.4v-36.9H547.6z"/>
				<path id="path7441" class="st0" d="M695.2,367.1v83.3h-14.7l-1.6-10.2h-0.5c-3.9,7.7-10,11.6-18,11.6c-5.5,0-9.5-1.9-12.2-5.5
					c-2.7-3.6-3.9-9.2-3.9-17v-62.2h18.7v61.1c0,3.7,0.5,6.4,1.2,8c0.8,1.6,2.2,2.3,4.1,2.3c1.6,0,3.1-0.5,4.7-1.6
					c1.6-0.9,2.7-2.2,3.3-3.7v-66.1H695.2z"/>
				<path id="path7443" class="st0" d="M791.3,367.1v83.3h-14.7l-1.6-10.2h-0.5c-3.9,7.7-10,11.6-18,11.6c-5.5,0-9.5-1.9-12.2-5.5
					c-2.7-3.6-3.9-9.2-3.9-17v-62.2h18.7v61.1c0,3.7,0.5,6.4,1.2,8c0.8,1.6,2.2,2.3,4.1,2.3c1.6,0,3.1-0.5,4.7-1.6
					c1.6-0.9,2.7-2.2,3.3-3.7v-66.1H791.3z"/>
				<path id="path7445" class="st0" d="M746.2,351.5h-18.6v98.7h-18.3v-98.7h-18.6v-15.2h55.5V351.5z"/>
				<path id="path7447" class="st0" d="M853.3,380.4c-1.1-5.3-3-9.1-5.5-11.4s-6.1-3.6-10.5-3.6c-3.4,0-6.7,0.9-9.7,3
					c-3,1.9-5.3,4.5-6.9,7.7h-0.2v-43.9h-18.1v118.1H818l1.9-7.8h0.5c1.4,2.8,3.6,5,6.6,6.7c3,1.6,6.1,2.5,9.7,2.5
					c6.4,0,10.9-3,13.9-8.7c3-5.8,4.5-15,4.5-27.3v-13.1C854.9,392.9,854.4,385.6,853.3,380.4L853.3,380.4z M836.2,414.3
					c0,6.1-0.3,10.8-0.8,14.2c-0.5,3.4-1.4,5.9-2.5,7.3c-1.2,1.4-2.8,2.2-4.7,2.2c-1.6,0-3-0.3-4.2-1.1c-1.2-0.8-2.3-1.9-3.1-3.3
					v-47.2c0.6-2.2,1.7-4.1,3.3-5.6c1.6-1.4,3.3-2.2,5-2.2c1.9,0,3.4,0.8,4.4,2.2c1.1,1.6,1.7,4.1,2.2,7.5c0.5,3.6,0.6,8.6,0.6,15
					v10.9H836.2z"/>
			</g>
		</g>
	</g>
	<g>
		<polygon class="st0" points="1327.8,345.2 1411.6,345.2 1404.3,368.8 1381.2,368.8 1381.2,455.3 1354.5,455.3 1354.5,368.3 
			1327.8,368.3 		"/>
		<polygon class="st0" points="1512.7,344.7 1538.9,344.7 1538.9,396.1 1565.1,370.4 1596.6,370.4 1563.6,402.3 1600.2,454.7 
			1571.4,454.7 1546.8,418.1 1538.9,425.4 1538.9,454.2 1512.7,454.2 		"/>
		<g>
			<polygon class="st0" points="1112.4,368.3 1139.1,368.3 1139.1,455.3 1165.3,455.3 1165.3,368.8 1186.3,368.8 1193.6,345.2 
				1111.9,345.2 			"/>
			<rect x="1198.9" y="380.3" class="st0" width="26.2" height="74.4"/>
			<polygon class="st0" points="1286.4,402.3 1319.4,370.4 1288,370.4 1261.8,396.1 1261.8,344.7 1235.6,344.7 1235.6,454.2 
				1261.8,454.2 1261.8,425.4 1269.6,418.1 1294.2,454.7 1323.1,454.7 			"/>
			<path class="st0" d="M1212,345.2c-7.2,0-13.1,5.9-13.1,13.1c0,7.2,5.9,13.1,13.1,13.1c7.2,0,13.1-5.9,13.1-13.1
				C1225.1,351.1,1219.2,345.2,1212,345.2z"/>
		</g>
		<path class="st0" d="M1452.5,365.1c-24.6,0-45.1,19.9-45.1,45.1c0,24.6,19.9,45.1,45.1,45.1c25.2,0,45.1-19.9,45.1-45.1
			C1497.5,385.6,1477.1,365.1,1452.5,365.1L1452.5,365.1z M1452.5,432.2c-12.1,0-22-10-22-22c0-12.1,10-22,22-22c12.1,0,22,10,22,22
			S1464.5,432.2,1452.5,432.2z"/>
		<g>
			<path class="st0" d="M1713.4,383.9c-1.2,5.8-5.6,9.9-13.3,9.9c-9.8,0-14.4-6.9-14.4-15.7c0-8.5,4.8-16,14.7-16
				c8.2,0,12.2,4.8,12.9,10h-6.7c-0.6-2.4-2.3-4.7-6.5-4.7c-5.5,0-7.6,4.9-7.6,10.6c0,5.2,1.8,10.7,7.8,10.7c4.4,0,5.7-2.9,6.3-4.7
				H1713.4z"/>
			<path class="st0" d="M1717.6,376.5c0-2.3,0-4.3,0-6.3h6.3c0.1,0.5,0.2,2.8,0.2,4.1c1-2.6,3.5-4.6,7.4-4.6v6.1
				c-4.7-0.1-7.4,1.1-7.4,7.5v10.1h-6.4V376.5z"/>
			<path class="st0" d="M1739.9,383.2c0,2.9,1.5,5.7,4.6,5.7c2.7,0,3.4-1.1,4-2.5h6.4c-0.8,2.8-3.3,7.5-10.6,7.5
				c-7.6,0-10.9-5.7-10.9-11.8c0-7.3,3.7-12.4,11.2-12.4c8,0,10.7,5.8,10.7,11.5c0,0.8,0,1.3-0.1,2H1739.9z M1748.8,379.2
				c0-2.7-1.1-5-4.2-5c-3.1,0-4.3,2.1-4.6,5H1748.8z"/>
			<path class="st0" d="M1778.8,387.4c0,2.2,0.2,5.4,0.3,6h-6.1c-0.2-0.5-0.3-1.7-0.3-2.3c-0.8,1.3-2.4,2.8-6.5,2.8
				c-5.6,0-7.9-3.7-7.9-7.3c0-5.3,4.2-7.7,11-7.7c1.1,0,2.5,0,3.3,0v-1.4c0-1.6-0.6-3.3-3.6-3.3c-2.7,0-3.3,1.1-3.6,2.8h-6.1
				c0.3-4.1,2.9-7.4,9.9-7.4c6.2,0,9.6,2.5,9.6,8V387.4z M1772.6,382.8c-0.5,0-1.8,0-2.6,0c-3.9,0-5.3,1.2-5.3,3.4
				c0,1.7,1,3.1,3.3,3.1c4.1,0,4.6-2.8,4.6-5.9V382.8z"/>
			<path class="st0" d="M1781.9,370.2h3.6V364h6.4v6.3h4.5v4.8h-4.5v11.4c0,1.8,0.5,2.4,2.4,2.4c0.4,0,1,0,1.5-0.1v4.4
				c-1.3,0.4-3,0.4-4.3,0.4c-4.5,0-6-2.4-6-6.5V375h-3.6V370.2z"/>
			<path class="st0" d="M1821.5,381.8c0,7-4.2,12.2-11.5,12.2c-7.2,0-11.4-5.1-11.4-12c0-7.1,4.3-12.2,11.7-12.2
				C1817.1,369.7,1821.5,374.5,1821.5,381.8z M1805.1,381.8c0,4.5,1.9,7.1,5,7.1c3.1,0,4.9-2.6,4.9-7.1c0-4.8-1.8-7.1-5-7.1
				C1807.1,374.7,1805.1,376.9,1805.1,381.8z"/>
			<path class="st0" d="M1825.9,376.5c0-2.3,0-4.3,0-6.3h6.3c0.1,0.5,0.2,2.8,0.2,4.1c1-2.6,3.5-4.6,7.4-4.6v6.1
				c-4.7-0.1-7.4,1.1-7.4,7.5v10.1h-6.4V376.5z"/>
			<path class="st0" d="M1713,435.5c0-5.3,0.1-11.2,0.2-14.6h-0.2c-1.4,6.3-4.5,16.6-7.5,26.2h-5.7c-2.2-8.4-5.4-20.1-6.8-26.3h-0.2
				c0.3,3.6,0.4,10,0.4,15.2v11h-6.1v-30.8h9.9c2.4,8.1,5.1,18.2,6,22.8h0.1c0.8-4.1,4.1-14.9,6.7-22.8h9.6V447h-6.4V435.5z"/>
			<path class="st0" d="M1744.4,441.1c0,2.2,0.2,5.4,0.3,6h-6.1c-0.2-0.5-0.3-1.7-0.3-2.3c-0.8,1.3-2.4,2.8-6.5,2.8
				c-5.6,0-7.9-3.7-7.9-7.3c0-5.3,4.2-7.7,11-7.7c1.1,0,2.5,0,3.3,0v-1.4c0-1.6-0.6-3.3-3.6-3.3c-2.7,0-3.3,1.1-3.6,2.8h-6.1
				c0.3-4.1,2.9-7.4,9.9-7.4c6.2,0,9.6,2.5,9.6,8V441.1z M1738.1,436.5c-0.5,0-1.8,0-2.6,0c-3.9,0-5.3,1.2-5.3,3.4
				c0,1.7,1,3.1,3.3,3.1c4.1,0,4.6-2.8,4.6-5.9V436.5z"/>
			<path class="st0" d="M1750.2,430.2c0-2.3,0-4.3,0-6.3h6.3c0.1,0.5,0.2,2.8,0.2,4.1c1-2.6,3.5-4.6,7.4-4.6v6.1
				c-4.7-0.1-7.4,1.1-7.4,7.5V447h-6.4V430.2z"/>
			<path class="st0" d="M1774,433.7c1.7-2.3,4.8-5.9,8-9.8h7.4l-8.1,8.7l8.8,14.4h-7.3l-5.9-10.3l-3,2.9v7.4h-6.4v-32.6h6.4V433.7z"
				/>
			<path class="st0" d="M1797.1,436.8c0,2.9,1.5,5.7,4.6,5.7c2.7,0,3.4-1.1,4-2.5h6.4c-0.8,2.8-3.3,7.5-10.6,7.5
				c-7.6,0-10.9-5.7-10.9-11.8c0-7.3,3.7-12.4,11.2-12.4c8,0,10.7,5.8,10.7,11.5c0,0.8,0,1.3-0.1,2H1797.1z M1806,432.9
				c0-2.7-1.1-5-4.2-5c-3.1,0-4.3,2.1-4.6,5H1806z"/>
			<path class="st0" d="M1814.6,423.9h3.6v-6.3h6.4v6.3h4.5v4.8h-4.5v11.4c0,1.8,0.5,2.4,2.4,2.4c0.4,0,1,0,1.5-0.1v4.4
				c-1.3,0.4-3,0.4-4.3,0.4c-4.5,0-6-2.4-6-6.5v-12.2h-3.6V423.9z"/>
			<path class="st0" d="M1839.2,445v10.9h-6.4v-26.4c0-1.9,0-3.7,0-5.6h6.2c0.1,0.6,0.2,2,0.2,2.9c1-1.7,3.1-3.4,6.7-3.4
				c5.2,0,9.2,4.3,9.2,11.5c0,8.2-4.5,12.7-10.1,12.7C1841.8,447.6,1840.1,446.4,1839.2,445z M1848.7,435.1c0-4.2-1.7-6.6-4.8-6.6
				c-3.6,0-4.9,2.3-4.9,7c0,4.4,1.2,7,4.7,7C1847,442.5,1848.7,439.9,1848.7,435.1z"/>
			<path class="st0" d="M1859.6,447v-32.6h6.4V447H1859.6z"/>
			<path class="st0" d="M1890.8,441.1c0,2.2,0.2,5.4,0.3,6h-6.1c-0.2-0.5-0.3-1.7-0.3-2.3c-0.8,1.3-2.4,2.8-6.5,2.8
				c-5.6,0-7.9-3.7-7.9-7.3c0-5.3,4.2-7.7,11-7.7c1.1,0,2.5,0,3.3,0v-1.4c0-1.6-0.6-3.3-3.6-3.3c-2.7,0-3.3,1.1-3.6,2.8h-6.1
				c0.3-4.1,2.9-7.4,9.9-7.4c6.2,0,9.6,2.5,9.6,8V441.1z M1884.5,436.5c-0.5,0-1.8,0-2.6,0c-3.9,0-5.3,1.2-5.3,3.4
				c0,1.7,1,3.1,3.3,3.1c4.1,0,4.6-2.8,4.6-5.9V436.5z"/>
			<path class="st0" d="M1916.5,439.6c-0.8,3.9-3.5,8-10.4,8c-7.2,0-10.9-5-10.9-11.9c0-6.8,4.2-12.3,11.2-12.3
				c7.8,0,10,5.6,10.1,8.2h-6.3c-0.4-1.9-1.5-3.2-4-3.2c-2.9,0-4.6,2.6-4.6,7.1c0,4.9,1.8,7.2,4.6,7.2c2.2,0,3.4-1.3,4-3H1916.5z"/>
			<path class="st0" d="M1925.9,436.8c0,2.9,1.5,5.7,4.6,5.7c2.7,0,3.4-1.1,4-2.5h6.4c-0.8,2.8-3.3,7.5-10.6,7.5
				c-7.6,0-10.9-5.7-10.9-11.8c0-7.3,3.7-12.4,11.2-12.4c8,0,10.7,5.8,10.7,11.5c0,0.8,0,1.3-0.1,2H1925.9z M1934.8,432.9
				c0-2.7-1.1-5-4.2-5c-3.1,0-4.3,2.1-4.6,5H1934.8z"/>
		</g>
		<g>
			<circle class="st0" cx="1643.2" cy="389.9" r="13.5"/>
		</g>
		<g>
			<circle class="st0" cx="1643.2" cy="430.5" r="13.5"/>
		</g>
	</g>
	<g>
		<path class="st0" d="M2135,420.5c0,7.5,1.6,13.3,3.8,16.7c2.8,4.6,7,6.5,11.3,6.5c5.5,0,10.6-1.4,20.4-14.9
			c7.8-10.8,17-26,23.2-35.5l10.5-16.1c7.3-11.2,15.7-23.6,25.4-32.1c7.9-6.9,16.4-10.7,25-10.7c14.4,0,28.1,8.3,38.6,24
			c11.5,17.1,17.1,38.7,17.1,61c0,13.2-2.6,23-7.1,30.7c-4.3,7.4-12.7,14.9-26.7,14.9v-21.2c12,0,15.1-11.1,15.1-23.7
			c0-18.1-4.2-38.1-13.5-52.4c-6.6-10.2-15.1-16.4-24.5-16.4c-10.1,0-18.3,7.7-27.5,21.3c-4.9,7.3-9.9,16.1-15.5,26.1l-6.2,11
			c-12.4,22.1-15.6,27.1-21.8,35.4c-10.9,14.5-20.2,20-32.5,20c-14.5,0-23.7-6.3-29.4-15.8c-4.6-7.7-6.9-17.9-6.9-29.4L2135,420.5z"
			/>
		<path class="st0" d="M2130.6,360c9.7-15,23.8-25.5,39.9-25.5c9.3,0,18.6,2.8,28.3,10.7c10.6,8.6,21.9,22.9,36,46.3l5,8.4
			c12.2,20.3,19.1,30.8,23.2,35.7c5.2,6.3,8.9,8.2,13.6,8.2c12,0,15.1-11.1,15.1-23.7l18.7-0.6c0,13.2-2.6,23-7.1,30.7
			c-4.3,7.4-12.7,14.9-26.7,14.9c-8.7,0-16.5-1.9-25.1-10c-6.6-6.2-14.3-17.2-20.2-27.1l-17.6-29.4c-8.8-14.8-17-25.8-21.6-30.8
			c-5-5.4-11.5-11.8-21.9-11.8c-8.4,0-15.5,5.9-21.5,14.9L2130.6,360z"/>
		<path class="st0" d="M2170.1,355.8c-8.4,0-15.5,5.9-21.5,14.9c-8.4,12.7-13.6,31.7-13.6,49.8c0,7.5,1.6,13.3,3.8,16.7l-18.1,11.9
			c-4.6-7.7-6.9-17.9-6.9-29.4c0-21,5.8-42.9,16.7-59.8c9.7-15,23.8-25.5,39.9-25.5L2170.1,355.8z"/>
		<path class="st0" d="M2351.6,338.6h24.6l41.7,75.5l41.8-75.5h24v124.1h-20v-95.1l-36.6,65.9h-18.8l-36.6-65.9v95.1h-20V338.6z
			 M2546.4,384.9c-14.4,0-23,10.8-25.1,24.2h48.7C2569.1,395.3,2561.1,384.9,2546.4,384.9L2546.4,384.9z M2501.5,416.7
			c0-28.2,18.2-48.7,45.3-48.7c26.6,0,42.6,20.2,42.6,50.2v5.5h-68c2.4,14.6,12.1,24.4,27.7,24.4c12.4,0,20.2-3.8,27.6-10.7l10.6,13
			c-10,9.2-22.8,14.5-38.9,14.5C2518.9,464.9,2501.5,443.5,2501.5,416.7z M2613.6,386.6h-18.4v-16.4h18.4v-27.1h19.3v27.1h28v16.4
			h-28v41.6c0,14.2,4.5,19.2,15.7,19.2c5.1,0,8-0.4,12.3-1.2v16.2c-5.4,1.5-10.5,2.2-16,2.2c-20.9,0-31.3-11.4-31.3-34.2V386.6z
			 M2742.3,402.6c-3.9-9.8-12.5-17-25.3-17c-16.5,0-27.1,11.7-27.1,30.8c0,18.6,9.7,30.9,26.3,30.9c13,0,22.3-7.6,26.1-17V402.6z
			 M2761.6,462.7h-19v-12.9c-5.3,7.6-15,15.2-30.6,15.2c-25.1,0-41.9-21-41.9-48.5c0-27.7,17.2-48.4,43-48.4
			c12.8,0,22.8,5.1,29.5,14.1v-11.9h19V462.7z"/>
	</g>
	<g>
		<g>
			<path class="st0" d="M3336.3,376.2c0,10.2-7.9,17.6-17.7,17.6c-9.8,0-17.7-7.5-17.7-17.6c0-10.2,7.9-17.6,17.7-17.6
				C3328.4,358.6,3336.3,366,3336.3,376.2z M3328.6,376.2c0-6.3-4.6-10.7-10-10.7s-10,4.3-10,10.7c0,6.3,4.6,10.7,10,10.7
				S3328.6,382.5,3328.6,376.2z"/>
			<path class="st0" d="M3374.5,376.2c0,10.2-7.9,17.6-17.7,17.6c-9.8,0-17.7-7.5-17.7-17.6c0-10.2,7.9-17.6,17.7-17.6
				C3366.6,358.6,3374.5,366,3374.5,376.2z M3366.8,376.2c0-6.3-4.6-10.7-10-10.7s-10,4.3-10,10.7c0,6.3,4.6,10.7,10,10.7
				S3366.8,382.5,3366.8,376.2z"/>
			<path class="st0" d="M3411.1,359.6v31.7c0,13-7.7,18.4-16.8,18.4c-8.6,0-13.7-5.7-15.6-10.4l6.7-2.8c1.2,2.9,4.1,6.3,8.9,6.3
				c5.8,0,9.4-3.6,9.4-10.3v-2.5h-0.3c-1.7,2.1-5.1,4-9.3,4c-8.8,0-16.9-7.7-16.9-17.6c0-10,8.1-17.7,16.9-17.7
				c4.2,0,7.6,1.9,9.3,3.9h0.3v-2.9L3411.1,359.6L3411.1,359.6z M3404.3,376.3c0-6.2-4.1-10.8-9.4-10.8c-5.3,0-9.8,4.5-9.8,10.8
				c0,6.2,4.5,10.6,9.8,10.6C3400.2,386.9,3404.3,382.4,3404.3,376.3z"/>
			<path class="st0" d="M3423.3,341.1v51.7h-7.6v-51.7H3423.3z"/>
			<path class="st0" d="M3452.7,382l6,4c-1.9,2.9-6.6,7.8-14.7,7.8c-10,0-17.5-7.7-17.5-17.6c0-10.5,7.6-17.6,16.6-17.6
				c9.2,0,13.6,7.3,15.1,11.2l0.8,2l-23.6,9.8c1.8,3.5,4.6,5.3,8.6,5.3C3448,386.9,3450.7,385,3452.7,382L3452.7,382z M3434.2,375.7
				l15.8-6.5c-0.9-2.2-3.5-3.7-6.5-3.7C3439.5,365.4,3434,368.9,3434.2,375.7z"/>
			<path class="st0" d="M3272.3,371.6v-7.5h25.2c0.2,1.3,0.4,2.8,0.4,4.5c0,5.6-1.5,12.6-6.5,17.5c-4.8,5-11,7.7-19.1,7.7
				c-15.1,0-27.8-12.3-27.8-27.4c0-15.1,12.7-27.4,27.8-27.4c8.4,0,14.3,3.3,18.8,7.6l-5.3,5.3c-3.2-3-7.6-5.3-13.5-5.3
				c-11,0-19.7,8.9-19.7,19.9c0,11,8.6,19.9,19.7,19.9c7.2,0,11.2-2.9,13.8-5.5c2.1-2.1,3.5-5.1,4.1-9.3L3272.3,371.6z"/>
		</g>
		<g>
			<path class="st0" d="M3243.8,417h31.1c16,0,26.8,9,26.8,23.5c0,16.2-12.1,24-27.3,24h-16.1v29.9h-14.6V417z M3258.3,452.7h14.5
				c8.7,0,14.1-3.7,14.1-12c0-8.5-6-12.1-13.8-12.1h-14.9V452.7z"/>
			<path class="st0" d="M3356.7,480.3c0,5.4,0.4,12.6,0.8,14.1h-13.3c-0.4-1.2-0.8-4.1-0.9-6.3c-2.1,3.4-6.2,7.6-16.7,7.6
				c-13.8,0-19.6-9-19.6-17.9c0-13,10.4-19,27.3-19c3.2,0,6.7,0,8.7,0v-4c0-4.4-1.5-9.2-10-9.2c-7.7,0-9.2,3.5-10.1,7.8h-13.3
				c0.8-9.5,6.7-18,23.8-17.9c15,0.1,23.1,6,23.1,19.5V480.3z M3343.2,467.5c-1.5,0-5,0-7.4,0c-10.2,0-14.7,3-14.7,9.4
				c0,4.8,3.1,8.6,9.3,8.6c11.4,0,12.8-7.8,12.8-16.4V467.5z"/>
			<path class="st0" d="M3372.1,452.4c0-6.5,0-11.4-0.1-15.6h13.6c0.2,1.4,0.4,6.7,0.4,10.7c2.7-7,9.1-11.9,18.8-12v13.4
				c-11.6-0.1-18.8,4.1-18.8,19.4v26h-13.9V452.4z"/>
			<path class="st0" d="M3411,436.8h9.2v-16h13.9v16h11.7v10.7h-11.7v30.2c0,4.8,1.3,6.9,6.2,6.9c1.1,0,2.8,0,4.1-0.3v9.8
				c-2.9,1-6.9,1.1-10,1.1c-10.5,0-14.3-5.5-14.3-15.4v-32.2h-9.2V436.8z"/>
			<path class="st0" d="M3455.5,451.3c0-4.9,0-10.2-0.1-14.5h13.5c0.3,1.6,0.5,6.2,0.5,8c2.1-4.1,6.7-9.4,17.2-9.4
				c11.3,0,19.1,7.4,19.1,22.1v36.7h-13.9v-35.1c0-7.2-2.6-12.3-10.2-12.3c-8.1,0-12.2,5.3-12.2,15.9v31.5h-13.9V451.3z"/>
			<path class="st0" d="M3531.2,468.5c0,8.7,4.4,16.2,13,16.2c7.5,0,9.7-3.3,11.3-7.1h13.9c-2.1,7.2-8.4,18.1-25.7,18.1
				c-18.7,0-26.6-14.3-26.6-29.3c0-17.7,9-30.9,27.2-30.9c19.4,0,25.9,14.5,25.9,28.2c0,1.9,0,3.2-0.2,4.8H3531.2z M3556.3,459.6
				c-0.1-7.6-3.5-13.9-11.9-13.9c-8.5,0-12,5.9-12.8,13.9H3556.3z"/>
			<path class="st0" d="M3581.9,452.4c0-6.5,0-11.4-0.1-15.6h13.6c0.2,1.4,0.4,6.7,0.4,10.7c2.7-7,9.1-11.9,18.8-12v13.4
				c-11.6-0.1-18.8,4.1-18.8,19.4v26h-13.9V452.4z"/>
		</g>
		<rect x="3083.2" y="314.5" class="st0" width="145.3" height="205.5"/>
		<path class="st1" d="M3158.6,480.7c-16.6,0-32.4-6.5-44.4-18.2c-12.1-11.8-18.7-27.4-18.7-44c0-16.5,6.6-32.2,18.7-44
			c12-11.8,27.8-18.2,44.4-18.2c16.6,0,30.6,5.6,42.7,17.1l1.8,1.8l-15,15l-1.8-1.7c-7.8-7.3-17.1-11-27.7-11
			c-22.6,0-40.3,18-40.3,40.9c0,22.9,17.7,40.9,40.3,40.9c15.4,0,23.6-6.4,28.4-11.2c3.9-3.9,6.4-9.1,7.7-15.9l-38.6,0v-21.3h59.6
			l0.4,2c0.6,3,0.9,6.5,0.9,10.3c0,9.4-1.9,27-14.9,39.9C3190.7,474.9,3176.5,480.7,3158.6,480.7z"/>
	</g>
</g>
</svg>
