<?xml version="1.0" encoding="UTF-8"?>
<svg id="Layer_1" data-name="Layer 1" xmlns="http://www.w3.org/2000/svg" viewBox="0 0 1091.4 800">
  <defs>
    <style>
      .cls-1 {
        fill: #282828;
      }
    </style>
  </defs>
  <path class="cls-1" d="m243,420.75c0,7.5,1.6,13.3,3.8,16.7,2.8,4.6,7,6.5,11.3,6.5,5.5,0,10.6-1.4,20.4-14.9,7.8-10.8,17-26,23.2-35.5l10.5-16.1c7.3-11.2,15.7-23.6,25.4-32.1,7.9-6.9,16.4-10.7,25-10.7,14.4,0,28.1,8.3,38.6,24,11.5,17.1,17.1,38.7,17.1,61,0,13.2-2.6,23-7.1,30.7-4.3,7.4-12.7,14.9-26.7,14.9v-21.2c12,0,15.1-11.1,15.1-23.7,0-18.1-4.2-38.1-13.5-52.4-6.6-10.2-15.1-16.4-24.5-16.4-10.1,0-18.3,7.7-27.5,21.3-4.9,7.3-9.9,16.1-15.5,26.1l-6.2,11c-12.4,22.1-15.6,27.1-21.8,35.4-10.9,14.5-20.2,20-32.5,20-14.5,0-23.7-6.3-29.4-15.8-4.6-7.7-6.9-17.9-6.9-29.4l21.2.6Z"/>
  <path class="cls-1" d="m238.6,360.25c9.7-15,23.8-25.5,39.9-25.5,9.3,0,18.6,2.8,28.3,10.7,10.6,8.6,21.9,22.9,36,46.3l5,8.4c12.2,20.3,19.1,30.8,23.2,35.7,5.2,6.3,8.9,8.2,13.6,8.2,12,0,15.1-11.1,15.1-23.7l18.7-.6c0,13.2-2.6,23-7.1,30.7-4.3,7.4-12.7,14.9-26.7,14.9-8.7,0-16.5-1.9-25.1-10-6.6-6.2-14.3-17.2-20.2-27.1l-17.6-29.4c-8.8-14.8-17-25.8-21.6-30.8-5-5.4-11.5-11.8-21.9-11.8-8.4,0-15.5,5.9-21.5,14.9l-18.1-10.9Z"/>
  <path class="cls-1" d="m278.1,356.05c-8.4,0-15.5,5.9-21.5,14.9-8.4,12.7-13.6,31.7-13.6,49.8,0,7.5,1.6,13.3,3.8,16.7l-18.1,11.9c-4.6-7.7-6.9-17.9-6.9-29.4,0-21,5.8-42.9,16.7-59.8,9.7-15,23.8-25.5,39.9-25.5l-.3,21.4Z"/>
  <path class="cls-1" d="m459.6,338.85h24.6l41.7,75.5,41.8-75.5h24v124.1h-20v-95.1l-36.6,65.9h-18.8l-36.6-65.9v95.1h-20v-124.1h-.1Zm194.8,46.3c-14.4,0-23,10.8-25.1,24.2h48.7c-.9-13.8-8.9-24.2-23.6-24.2h0Zm-44.9,31.8c0-28.2,18.2-48.7,45.3-48.7s42.6,20.2,42.6,50.2v5.5h-68c2.4,14.6,12.1,24.4,27.7,24.4,12.4,0,20.2-3.8,27.6-10.7l10.6,13c-10,9.2-22.8,14.5-38.9,14.5-29.5,0-46.9-21.4-46.9-48.2Zm112.1-30.1h-18.4v-16.4h18.4v-27.1h19.3v27.1h28v16.4h-28v41.6c0,14.2,4.5,19.2,15.7,19.2,5.1,0,8-.4,12.3-1.2v16.2c-5.4,1.5-10.5,2.2-16,2.2-20.9,0-31.3-11.4-31.3-34.2v-43.8Zm128.7,16c-3.9-9.8-12.5-17-25.3-17-16.5,0-27.1,11.7-27.1,30.8s9.7,30.9,26.3,30.9c13,0,22.3-7.6,26.1-17v-27.7Zm19.3,60.1h-19v-12.9c-5.3,7.6-15,15.2-30.6,15.2-25.1,0-41.9-21-41.9-48.5s17.2-48.4,43-48.4c12.8,0,22.8,5.1,29.5,14.1v-11.9h19v92.4Z"/>
</svg>