<svg width="90" height="90" viewBox="0 0 90 90" fill="none" xmlns="http://www.w3.org/2000/svg">
<path d="M77.1429 0H12.8571C5.75634 0 0 5.75634 0 12.8571V77.1429C0 84.2437 5.75634 90 12.8571 90H77.1429C84.2437 90 90 84.2437 90 77.1429V12.8571C90 5.75634 84.2437 0 77.1429 0Z" fill="url(#paint0_linear_5923_11318)"/>
<path d="M14.6489 44.4861C14.7365 44.602 14.8497 44.7307 14.9836 44.5891C17.9237 41.4894 20.8603 38.3906 23.7935 35.2927C24.0303 35.0352 24.2466 34.7778 24.4937 34.5358C24.7613 34.1969 25.097 33.9178 25.479 33.7167C25.8611 33.5155 26.2811 33.3966 26.7119 33.3678C27.1427 33.3389 27.5748 33.4006 27.9803 33.5491C28.3857 33.6975 28.7556 33.9292 29.066 34.2294C29.4033 34.5358 29.6736 34.9087 29.86 35.3247C30.0463 35.7406 30.1446 36.1905 30.1487 36.6463C30.1528 37.102 30.0626 37.5536 29.8838 37.9729C29.7051 38.3921 29.4415 38.7698 29.1098 39.0823C27.1686 41.165 25.2094 43.2323 23.1885 45.2301C22.5037 45.9047 22.6195 46.2316 23.2297 46.8443C25.2403 48.8576 27.1918 50.9326 29.151 53.0025C29.4719 53.3069 29.727 53.6739 29.9005 54.0808C30.0739 54.4877 30.162 54.9258 30.1594 55.3681C30.1567 55.8105 30.0633 56.2475 29.885 56.6523C29.7067 57.0571 29.4472 57.421 29.1227 57.7215C28.8342 58.0459 28.4767 58.3016 28.0765 58.4698C27.6763 58.638 27.2435 58.7144 26.8099 58.6934C26.3763 58.6725 25.9529 58.5546 25.5708 58.3485C25.1887 58.1425 24.8576 57.8535 24.6019 57.5027C21.3426 54.1713 17.9957 50.912 14.9862 47.3515C14.86 47.2048 14.7287 47.3309 14.6489 47.4468V44.4861Z" fill="white"/>
<path d="M74.3868 47.4376C73.5423 47.2085 73.6144 48.0864 73.2926 48.4211C70.2779 51.4513 67.3379 54.5535 64.3412 57.5991C64.0794 57.9296 63.7483 58.1985 63.3712 58.3868C62.994 58.5752 62.5802 58.6784 62.1587 58.6892C61.7373 58.7001 61.3187 58.6182 60.9324 58.4494C60.5462 58.2806 60.2017 58.029 59.9234 57.7124C59.6056 57.4219 59.3494 57.0706 59.1701 56.6792C58.9907 56.2878 58.8919 55.8644 58.8794 55.434C58.8669 55.0037 58.941 54.5752 59.0974 54.1741C59.2537 53.7729 59.4891 53.4073 59.7895 53.0989C61.7693 50.9827 63.7696 48.8819 65.8189 46.8301C66.4368 46.2122 66.5346 45.8878 65.8524 45.2159C63.8597 43.2541 61.9546 41.2023 60.0238 39.1787C59.5413 38.7555 59.1922 38.2012 59.0189 37.5833C58.8457 36.9653 58.8558 36.3103 59.048 35.698C59.2036 35.1246 59.517 34.6063 59.9525 34.2021C60.3881 33.798 60.9283 33.5242 61.5118 33.4119C62.1209 33.3153 62.7448 33.387 63.3161 33.6193C63.8874 33.8517 64.3843 34.2357 64.7531 34.73C67.8236 37.9773 70.8872 41.2306 73.944 44.4899C74.0959 44.6521 74.2478 44.7113 74.3919 44.4899L74.3868 47.4376Z" fill="white"/>
<path d="M35.8909 64.1779C35.3088 64.1957 34.7329 64.0539 34.2256 63.7679C33.7183 63.4819 33.2989 63.0626 33.0128 62.5553C32.7267 62.0481 32.5848 61.4722 32.6024 60.8901C32.6201 60.308 32.7967 59.7418 33.113 59.2529C35.6411 54.7759 38.2156 50.322 40.7515 45.8502C43.7499 40.5622 46.7389 35.2742 49.7184 29.9862C50.0299 29.4327 50.3286 28.8689 50.6864 28.3463C50.882 28.0038 51.1441 27.704 51.4573 27.4644C51.7706 27.2248 52.1286 27.0503 52.5103 26.9513C52.892 26.8522 53.2897 26.8305 53.6799 26.8875C54.0701 26.9444 54.445 27.0789 54.7824 27.283C55.149 27.4613 55.4745 27.714 55.7382 28.0248C56.002 28.3357 56.1982 28.698 56.3144 29.0888C56.4306 29.4795 56.4643 29.8902 56.4133 30.2946C56.3623 30.6991 56.2277 31.0885 56.0182 31.4382C54.216 34.749 52.3495 38.016 50.4907 41.2933C46.526 48.2805 42.5382 55.2521 38.5889 62.2496C38.339 62.7735 37.9606 63.2255 37.4888 63.5636C37.017 63.9017 36.4673 64.1148 35.8909 64.183" fill="white"/>
<defs>
<linearGradient id="paint0_linear_5923_11318" x1="200.202" y1="47.609" x2="-6.78279" y2="40.4863" gradientUnits="userSpaceOnUse">
<stop offset="0.191743" stop-color="#4AA6F7"/>
<stop offset="0.271902" stop-color="#4AA6F7"/>
<stop offset="1" stop-color="#1141BD"/>
</linearGradient>
</defs>
</svg>
