<?xml version="1.0" encoding="UTF-8"?>
<svg id="Layer_1" data-name="Layer 1" xmlns="http://www.w3.org/2000/svg" viewBox="0 0 1091.4 800">
  <defs>
    <style>
      .cls-1 {
        fill: #282828;
      }
    </style>
  </defs>
  <polygon class="cls-1" points="346.9 344.9 430.7 344.9 423.4 368.5 400.3 368.5 400.3 455 373.6 455 373.6 368 346.9 368 346.9 344.9"/>
  <polygon class="cls-1" points="531.8 344.4 558 344.4 558 395.8 584.2 370.1 615.7 370.1 582.7 402 619.3 454.4 590.5 454.4 565.9 417.8 558 425.1 558 453.9 531.8 453.9 531.8 344.4"/>
  <g>
    <polygon class="cls-1" points="131.5 368 158.2 368 158.2 455 184.4 455 184.4 368.5 205.4 368.5 212.7 344.9 131 344.9 131.5 368"/>
    <rect class="cls-1" x="218" y="380" width="26.2" height="74.4"/>
    <polygon class="cls-1" points="305.5 402 338.5 370.1 307.1 370.1 280.9 395.8 280.9 344.4 254.7 344.4 254.7 453.9 280.9 453.9 280.9 425.1 288.7 417.8 313.3 454.4 342.2 454.4 305.5 402"/>
    <path class="cls-1" d="m231.1,344.9c-7.2,0-13.1,5.9-13.1,13.1s5.9,13.1,13.1,13.1,13.1-5.9,13.1-13.1-5.9-13.1-13.1-13.1Z"/>
  </g>
  <path class="cls-1" d="m471.6,364.8c-24.6,0-45.1,19.9-45.1,45.1s19.9,45.1,45.1,45.1,45.1-19.9,45.1-45.1c-.1-24.6-20.5-45.1-45.1-45.1h0Zm0,67.1c-12.1,0-22-10-22-22s10-22,22-22,22,10,22,22-10,22-22,22Z"/>
  <g>
    <path class="cls-1" d="m732.5,383.6c-1.2,5.8-5.6,9.9-13.3,9.9-9.8,0-14.4-6.9-14.4-15.7s4.8-16,14.7-16c8.2,0,12.2,4.8,12.9,10h-6.7c-.6-2.4-2.3-4.7-6.5-4.7-5.5,0-7.6,4.9-7.6,10.6,0,5.2,1.8,10.7,7.8,10.7,4.4,0,5.7-2.9,6.3-4.7h6.8v-.1Z"/>
    <path class="cls-1" d="m736.7,376.2v-6.3h6.3c.1.5.2,2.8.2,4.1,1-2.6,3.5-4.6,7.4-4.6v6.1c-4.7-.1-7.4,1.1-7.4,7.5v10.1h-6.4v-16.9h-.1Z"/>
    <path class="cls-1" d="m759,382.9c0,2.9,1.5,5.7,4.6,5.7,2.7,0,3.4-1.1,4-2.5h6.4c-.8,2.8-3.3,7.5-10.6,7.5s-10.9-5.7-10.9-11.8c0-7.3,3.7-12.4,11.2-12.4,8,0,10.7,5.8,10.7,11.5,0,.8,0,1.3-.1,2h-15.3Zm8.9-4c0-2.7-1.1-5-4.2-5s-4.3,2.1-4.6,5h8.8Z"/>
    <path class="cls-1" d="m797.9,387.1c0,2.2.2,5.4.3,6h-6.1c-.2-.5-.3-1.7-.3-2.3-.8,1.3-2.4,2.8-6.5,2.8-5.6,0-7.9-3.7-7.9-7.3,0-5.3,4.2-7.7,11-7.7h3.3v-1.4c0-1.6-.6-3.3-3.6-3.3-2.7,0-3.3,1.1-3.6,2.8h-6.1c.3-4.1,2.9-7.4,9.9-7.4,6.2,0,9.6,2.5,9.6,8v9.8h0Zm-6.2-4.6h-2.6c-3.9,0-5.3,1.2-5.3,3.4,0,1.7,1,3.1,3.3,3.1,4.1,0,4.6-2.8,4.6-5.9v-.6Z"/>
    <path class="cls-1" d="m801,369.9h3.6v-6.2h6.4v6.3h4.5v4.8h-4.5v11.4c0,1.8.5,2.4,2.4,2.4.4,0,1,0,1.5-.1v4.4c-1.3.4-3,.4-4.3.4-4.5,0-6-2.4-6-6.5v-12.1h-3.6v-4.8Z"/>
    <path class="cls-1" d="m840.6,381.5c0,7-4.2,12.2-11.5,12.2s-11.4-5.1-11.4-12,4.3-12.2,11.7-12.2c6.8-.1,11.2,4.7,11.2,12Zm-16.4,0c0,4.5,1.9,7.1,5,7.1s4.9-2.6,4.9-7.1c0-4.8-1.8-7.1-5-7.1-2.9,0-4.9,2.2-4.9,7.1Z"/>
    <path class="cls-1" d="m845,376.2v-6.3h6.3c.1.5.2,2.8.2,4.1,1-2.6,3.5-4.6,7.4-4.6v6.1c-4.7-.1-7.4,1.1-7.4,7.5v10.1h-6.4v-16.9h-.1Z"/>
    <path class="cls-1" d="m732.1,435.2c0-5.3.1-11.2.2-14.6h-.2c-1.4,6.3-4.5,16.6-7.5,26.2h-5.7c-2.2-8.4-5.4-20.1-6.8-26.3h-.2c.3,3.6.4,10,.4,15.2v11h-6.1v-30.8h9.9c2.4,8.1,5.1,18.2,6,22.8h.1c.8-4.1,4.1-14.9,6.7-22.8h9.6v30.8h-6.4v-11.5Z"/>
    <path class="cls-1" d="m763.5,440.8c0,2.2.2,5.4.3,6h-6.1c-.2-.5-.3-1.7-.3-2.3-.8,1.3-2.4,2.8-6.5,2.8-5.6,0-7.9-3.7-7.9-7.3,0-5.3,4.2-7.7,11-7.7h3.3v-1.4c0-1.6-.6-3.3-3.6-3.3-2.7,0-3.3,1.1-3.6,2.8h-6.1c.3-4.1,2.9-7.4,9.9-7.4,6.2,0,9.6,2.5,9.6,8v9.8h0Zm-6.3-4.6h-2.6c-3.9,0-5.3,1.2-5.3,3.4,0,1.7,1,3.1,3.3,3.1,4.1,0,4.6-2.8,4.6-5.9v-.6Z"/>
    <path class="cls-1" d="m769.3,429.9v-6.3h6.3c.1.5.2,2.8.2,4.1,1-2.6,3.5-4.6,7.4-4.6v6.1c-4.7-.1-7.4,1.1-7.4,7.5v10h-6.4v-16.8h-.1Z"/>
    <path class="cls-1" d="m793.1,433.4c1.7-2.3,4.8-5.9,8-9.8h7.4l-8.1,8.7,8.8,14.4h-7.3l-5.9-10.3-3,2.9v7.4h-6.4v-32.6h6.4v19.3h.1Z"/>
    <path class="cls-1" d="m816.2,436.5c0,2.9,1.5,5.7,4.6,5.7,2.7,0,3.4-1.1,4-2.5h6.4c-.8,2.8-3.3,7.5-10.6,7.5s-10.9-5.7-10.9-11.8c0-7.3,3.7-12.4,11.2-12.4,8,0,10.7,5.8,10.7,11.5,0,.8,0,1.3-.1,2h-15.3Zm8.9-3.9c0-2.7-1.1-5-4.2-5s-4.3,2.1-4.6,5h8.8Z"/>
    <path class="cls-1" d="m833.7,423.6h3.6v-6.3h6.4v6.3h4.5v4.8h-4.5v11.4c0,1.8.5,2.4,2.4,2.4.4,0,1,0,1.5-.1v4.4c-1.3.4-3,.4-4.3.4-4.5,0-6-2.4-6-6.5v-12.2h-3.6v-4.6Z"/>
    <path class="cls-1" d="m858.3,444.7v10.9h-6.4v-32h6.2c.1.6.2,2,.2,2.9,1-1.7,3.1-3.4,6.7-3.4,5.2,0,9.2,4.3,9.2,11.5,0,8.2-4.5,12.7-10.1,12.7-3.2,0-4.9-1.2-5.8-2.6Zm9.5-9.9c0-4.2-1.7-6.6-4.8-6.6-3.6,0-4.9,2.3-4.9,7,0,4.4,1.2,7,4.7,7,3.3,0,5-2.6,5-7.4Z"/>
    <path class="cls-1" d="m878.7,446.7v-32.6h6.4v32.6h-6.4Z"/>
    <path class="cls-1" d="m909.9,440.8c0,2.2.2,5.4.3,6h-6.1c-.2-.5-.3-1.7-.3-2.3-.8,1.3-2.4,2.8-6.5,2.8-5.6,0-7.9-3.7-7.9-7.3,0-5.3,4.2-7.7,11-7.7h3.3v-1.4c0-1.6-.6-3.3-3.6-3.3-2.7,0-3.3,1.1-3.6,2.8h-6.1c.3-4.1,2.9-7.4,9.9-7.4,6.2,0,9.6,2.5,9.6,8v9.8h0Zm-6.3-4.6h-2.6c-3.9,0-5.3,1.2-5.3,3.4,0,1.7,1,3.1,3.3,3.1,4.1,0,4.6-2.8,4.6-5.9v-.6Z"/>
    <path class="cls-1" d="m935.6,439.3c-.8,3.9-3.5,8-10.4,8s-10.9-5-10.9-11.9,4.2-12.3,11.2-12.3c7.8,0,10,5.6,10.1,8.2h-6.3c-.4-1.9-1.5-3.2-4-3.2-2.9,0-4.6,2.6-4.6,7.1,0,4.9,1.8,7.2,4.6,7.2,2.2,0,3.4-1.3,4-3h6.3v-.1Z"/>
    <path class="cls-1" d="m945,436.5c0,2.9,1.5,5.7,4.6,5.7,2.7,0,3.4-1.1,4-2.5h6.4c-.8,2.8-3.3,7.5-10.6,7.5s-10.9-5.7-10.9-11.8c0-7.3,3.7-12.4,11.2-12.4,8,0,10.7,5.8,10.7,11.5,0,.8,0,1.3-.1,2h-15.3Zm8.9-3.9c0-2.7-1.1-5-4.2-5s-4.3,2.1-4.6,5h8.8Z"/>
  </g>
  <circle class="cls-1" cx="662.3" cy="389.6" r="13.5"/>
  <circle class="cls-1" cx="662.3" cy="430.2" r="13.5"/>
</svg>