<?xml version="1.0" encoding="UTF-8"?>
<svg id="Layer_1" data-name="Layer 1" xmlns="http://www.w3.org/2000/svg" viewBox="0 0 1091.4 800">
  <defs>
    <style>
      .cls-1 {
        fill: #282828;
      }
    </style>
  </defs>
  <path class="cls-1" d="m433.75,354.4h0c-2.2-8.1-8.6-14.5-16.7-16.7-14.8-4.1-74.2-4.1-74.2-4.1,0,0-59.4,0-74.2,3.9-8,2.2-14.5,8.7-16.7,16.9-3.9,14.8-3.9,45.6-3.9,45.6,0,0,0,30.9,3.9,45.6,2.2,8.1,8.6,14.5,16.7,16.7,15,4.1,74.2,4.1,74.2,4.1,0,0,59.4,0,74.2-3.9,8.1-2.2,14.5-8.6,16.7-16.7,3.9-14.8,3.9-45.6,3.9-45.6,0,0,.2-31-3.9-45.8Zm-109.8,74v-56.9l49.4,28.4-49.4,28.5Z"/>
  <g id="g7451">
    <g id="g7449">
      <path id="path7435" class="cls-1" d="m523.45,454.5c-3.7-2.5-6.4-6.4-8-11.9-1.6-5.3-2.3-12.5-2.3-21.2v-12c0-8.9.9-16.1,2.7-21.6,1.9-5.5,4.7-9.4,8.4-11.9,3.9-2.5,8.9-3.7,15.2-3.7s11.1,1.2,14.8,3.7,6.4,6.6,8.1,11.9,2.7,12.5,2.7,21.6v12c0,8.9-.8,15.9-2.5,21.4-1.7,5.3-4.4,9.4-8.1,11.9-3.7,2.5-8.9,3.7-15.3,3.7-6.6-.1-11.9-1.4-15.7-3.9h0Zm21.1-13.1c1.1-2.7,1.6-7.2,1.6-13.3v-25.9c0-5.9-.5-10.3-1.6-13.1-1.1-2.8-2.8-4.1-5.5-4.1-2.5,0-4.4,1.4-5.3,4.1-1.1,2.8-1.6,7.2-1.6,13.1v25.9c0,6.1.5,10.6,1.6,13.3.9,2.7,2.8,4.1,5.5,4.1,2.5-.1,4.2-1.3,5.3-4.1Z"/>
      <path id="path7437" class="cls-1" d="m811.85,421.5v4.2c0,5.3.2,9.4.5,12,.3,2.7.9,4.7,2,5.8.9,1.2,2.5,1.9,4.7,1.9,2.8,0,4.7-1.1,5.8-3.3s1.6-5.8,1.7-10.9l16.1.9c.2.8.2,1.7.2,3,0,7.7-2,13.4-6.2,17.2-4.2,3.7-10.2,5.6-17.8,5.6-9.2,0-15.6-3-19.4-8.7-3.7-5.8-5.6-14.7-5.6-26.9v-14.5c0-12.5,1.9-21.6,5.8-27.3,3.9-5.8,10.5-8.6,19.7-8.6,6.4,0,11.4,1.2,14.8,3.6,3.4,2.3,5.8,6.1,7.2,10.9,1.4,5,2,11.9,2,20.6v14.2h-31.4v.3h-.1Zm2.4-35c-.9,1.2-1.6,3.1-1.9,5.8-.3,2.7-.5,6.7-.5,12.2v5.9h13.7v-5.9c0-5.3-.2-9.4-.5-12.2-.3-2.8-1.1-4.7-2-5.8-.9-1.1-2.5-1.7-4.4-1.7-2.1-.1-3.5.5-4.4,1.7h0Z"/>
      <path id="path7439" class="cls-1" d="m477.85,420l-21.2-77h18.6l7.5,34.8c1.9,8.6,3.3,15.9,4.2,22h.5c.6-4.4,2-11.6,4.2-21.9l7.8-35h18.6l-21.6,77v36.9h-18.4v-36.9h-.2v.1Z"/>
      <path id="path7441" class="cls-1" d="m625.45,373.7v83.3h-14.7l-1.6-10.2h-.5c-3.9,7.7-10,11.6-18,11.6-5.5,0-9.5-1.9-12.2-5.5s-3.9-9.2-3.9-17v-62.2h18.7v61.1c0,3.7.5,6.4,1.2,8,.8,1.6,2.2,2.3,4.1,2.3,1.6,0,3.1-.5,4.7-1.6,1.6-.9,2.7-2.2,3.3-3.7v-66.1h18.9Z"/>
      <path id="path7443" class="cls-1" d="m721.55,373.7v83.3h-14.7l-1.6-10.2h-.5c-3.9,7.7-10,11.6-18,11.6-5.5,0-9.5-1.9-12.2-5.5s-3.9-9.2-3.9-17v-62.2h18.7v61.1c0,3.7.5,6.4,1.2,8,.8,1.6,2.2,2.3,4.1,2.3,1.6,0,3.1-.5,4.7-1.6,1.6-.9,2.7-2.2,3.3-3.7v-66.1h18.9Z"/>
      <path id="path7445" class="cls-1" d="m676.45,358.1h-18.6v98.7h-18.3v-98.7h-18.6v-15.2h55.5v15.2h0Z"/>
      <path id="path7447" class="cls-1" d="m783.55,387c-1.1-5.3-3-9.1-5.5-11.4s-6.1-3.6-10.5-3.6c-3.4,0-6.7.9-9.7,3-3,1.9-5.3,4.5-6.9,7.7h-.2v-43.9h-18.1v118.1h15.6l1.9-7.8h.5c1.4,2.8,3.6,5,6.6,6.7,3,1.6,6.1,2.5,9.7,2.5,6.4,0,10.9-3,13.9-8.7,3-5.8,4.5-15,4.5-27.3v-13.1c-.2-9.7-.7-17-1.8-22.2h0Zm-17.1,33.9c0,6.1-.3,10.8-.8,14.2-.5,3.4-1.4,5.9-2.5,7.3-1.2,1.4-2.8,2.2-4.7,2.2-1.6,0-3-.3-4.2-1.1-1.2-.8-2.3-1.9-3.1-3.3v-47.2c.6-2.2,1.7-4.1,3.3-5.6,1.6-1.4,3.3-2.2,5-2.2,1.9,0,3.4.8,4.4,2.2,1.1,1.6,1.7,4.1,2.2,7.5.5,3.6.6,8.6.6,15v10.9h-.2v.1Z"/>
    </g>
  </g>
</svg>